<?xml version="1.0" encoding="iso-8859-1"?>
<!-- Generator: Adobe Illustrator 19.0.0, SVG Export Plug-In . SVG Version: 6.00 Build 0)  -->
<svg version="1.1" id="Layer_1" xmlns="http://www.w3.org/2000/svg" xmlns:xlink="http://www.w3.org/1999/xlink" x="0px" y="0px"
	 viewBox="0 0 503.467 503.467" style="enable-background:new 0 0 503.467 503.467;" xml:space="preserve">
<g transform="translate(1 1)">
	<g>
		<polygon style="fill:#ECF4F7;" points="276.333,122.733 344.6,122.733 344.6,3.267 276.333,3.267 		"/>
		<polygon style="fill:#ECF4F7;" points="378.733,3.267 378.733,156.867 122.733,156.867 122.733,3.267 276.333,3.267 
			276.333,122.733 344.6,122.733 344.6,3.267 		"/>
		<polygon style="fill:#ECF4F7;" points="88.6,498.2 412.867,498.2 412.867,276.333 88.6,276.333 		"/>
	</g>
	<path style="fill:#a0a8d3;" d="M498.2,88.6v375.467c0,18.773-15.36,34.133-34.133,34.133h-51.2V276.333H88.6V498.2H37.4
		c-18.773,0-34.133-15.36-34.133-34.133V37.4c0-18.773,15.36-34.133,34.133-34.133h85.333v153.6h256V3.267h34.133L498.2,88.6z"/>
</g>
<path style="fill:#51565F;" d="M465.067,503.467h-51.2c-2.56,0-4.267-1.707-4.267-4.267V281.6H93.867v183.467
	c0,2.56-1.707,4.267-4.267,4.267c-2.56,0-4.267-1.707-4.267-4.267V277.333c0-2.56,1.707-4.267,4.267-4.267h324.267
	c2.56,0,4.267,1.707,4.267,4.267v217.6h46.933c16.213,0,29.867-13.653,29.867-29.867V91.307L412.16,8.533h-62.293v115.2
	c0,2.56-1.707,4.267-4.267,4.267h-68.267c-2.56,0-4.267-1.707-4.267-4.267V4.267c0-2.56,1.707-4.267,4.267-4.267h34.133
	c2.56,0,4.267,1.707,4.267,4.267s-1.707,4.267-4.267,4.267H281.6v110.933h59.733V6.827c-0.853-0.853-0.853-1.707-0.853-2.56
	c0-2.56,1.707-4.267,4.267-4.267h69.12c0.853,0,2.56,0.853,3.413,0.853l85.333,85.333c0.853,0.853,0.853,1.707,0.853,3.413v375.467
	C503.467,486.4,486.4,503.467,465.067,503.467z M379.733,503.467H38.4c-21.333,0-38.4-17.067-38.4-38.4V38.4
	C0,17.067,17.067,0,38.4,0h51.2c2.56,0,4.267,1.707,4.267,4.267S92.16,8.533,89.6,8.533H38.4C22.187,8.533,8.533,22.187,8.533,38.4
	v426.667c0,16.213,13.653,29.867,29.867,29.867h341.333c2.56,0,4.267,1.707,4.267,4.267C384,501.76,382.293,503.467,379.733,503.467
	z M328.533,418.133h-153.6c-2.56,0-4.267-1.707-4.267-4.267c0-2.56,1.707-4.267,4.267-4.267h153.6c2.56,0,4.267,1.707,4.267,4.267
	C332.8,416.427,331.093,418.133,328.533,418.133z M328.533,366.933h-153.6c-2.56,0-4.267-1.707-4.267-4.267s1.707-4.267,4.267-4.267
	h153.6c2.56,0,4.267,1.707,4.267,4.267S331.093,366.933,328.533,366.933z M379.733,162.133h-256c-2.56,0-4.267-1.707-4.267-4.267
	V4.267c0-2.56,1.707-4.267,4.267-4.267H243.2c2.56,0,4.267,1.707,4.267,4.267s-1.707,4.267-4.267,4.267H128V153.6h247.467V38.4
	c0-2.56,1.707-4.267,4.267-4.267c2.56,0,4.267,1.707,4.267,4.267v119.467C384,160.427,382.293,162.133,379.733,162.133z"/>
<g>
</g>
<g>
</g>
<g>
</g>
<g>
</g>
<g>
</g>
<g>
</g>
<g>
</g>
<g>
</g>
<g>
</g>
<g>
</g>
<g>
</g>
<g>
</g>
<g>
</g>
<g>
</g>
<g>
</g>
</svg>
