<svg xmlns="http://www.w3.org/2000/svg" width="73" height="66.636" viewBox="0 0 73 66.636">
  <g id="noun_pending_2915524" transform="translate(1.5 1.5)" opacity="0.065">
    <path id="Path_484" data-name="Path 484" d="M101.545,591.091a7.424,7.424,0,0,1,7.421-7.424h10.612a7.424,7.424,0,0,1,0,14.848H108.967A7.427,7.427,0,0,1,101.545,591.091Zm2.121,0a5.306,5.306,0,0,0,5.3,5.3h10.612a5.3,5.3,0,0,0,0-10.606H108.967A5.3,5.3,0,0,0,103.667,591.091Zm-14.848,7.424a1.061,1.061,0,0,1,0,2.121,31.818,31.818,0,1,1,31.818-31.818,1.061,1.061,0,1,1-2.121,0,29.7,29.7,0,1,0-29.7,29.7Zm20.151-6.364a1.061,1.061,0,0,1,0-2.121h5.3a1.061,1.061,0,0,1,0,2.121Zm-8.485-23.333a1.061,1.061,0,0,1,0,2.121H87.758a1.061,1.061,0,0,1-1.061-1.061V550.788a1.061,1.061,0,1,1,2.121,0v18.03Z" transform="translate(-57 -537)" stroke="#707070" stroke-width="3"/>
  </g>
</svg>
