<svg xmlns="http://www.w3.org/2000/svg" width="51.465" height="46.439" viewBox="0 0 51.465 46.439">
  <path id="Path_15264" data-name="Path 15264" d="M46.942,29.021H43.323V26.508a1.508,1.508,0,1,0-3.016,0v2.513H27.24V26.508a1.508,1.508,0,0,0-3.016,0v2.513H11.157V26.508a1.508,1.508,0,1,0-3.016,0v2.513H4.523A4.528,4.528,0,0,0,0,33.544V66.916a4.528,4.528,0,0,0,4.523,4.523H46.942a4.528,4.528,0,0,0,4.523-4.523V33.544A4.528,4.528,0,0,0,46.942,29.021ZM3.016,33.544a1.509,1.509,0,0,1,1.508-1.508H8.142v2.513a1.508,1.508,0,0,0,3.016,0V32.036H24.225v2.513a1.508,1.508,0,0,0,3.016,0V32.036H40.307v2.513a1.508,1.508,0,0,0,3.016,0V32.036h3.619a1.509,1.509,0,0,1,1.508,1.508v5.931H3.016Zm43.926,34.88H4.523a1.509,1.509,0,0,1-1.508-1.508V42.49H48.449V66.916A1.509,1.509,0,0,1,46.942,68.423Z" transform="translate(0 -25)" fill="#2d3955"/>
</svg>
