<svg xmlns="http://www.w3.org/2000/svg" width="112.094" height="69.395" viewBox="0 0 112.094 69.395">
  <g id="Group_43" data-name="Group 43" transform="translate(-329.4 -256.481)" opacity="0.3">
    <path id="Path_471" data-name="Path 471" d="M47.126,14.2H18.21a2.092,2.092,0,0,0-2.11,2.11,2.175,2.175,0,0,0,2.11,2.11H47.25a2.092,2.092,0,0,0,2.11-2.11A2.2,2.2,0,0,0,47.126,14.2Z" transform="translate(313.3 251.173)" opacity="0.202"/>
    <path id="Path_472" data-name="Path 472" d="M47.126,23.4H18.21a2.11,2.11,0,0,0,0,4.22H47.25a2.092,2.092,0,0,0,2.11-2.11A2.2,2.2,0,0,0,47.126,23.4Z" transform="translate(313.3 253.39)" opacity="0.202"/>
    <path id="Path_473" data-name="Path 473" d="M32.73,33.2H18.21a2.11,2.11,0,1,0,0,4.22H32.73a2.092,2.092,0,0,0,2.11-2.11A2.175,2.175,0,0,0,32.73,33.2Z" transform="translate(313.3 255.752)" opacity="0.202"/>
    <path id="Path_474" data-name="Path 474" d="M104.47,79.242a2.6,2.6,0,0,0-2.854,2.234A29.619,29.619,0,0,1,68.48,107.041,28.807,28.807,0,0,1,48.872,95.748,29.552,29.552,0,0,1,76.051,48.34a2.563,2.563,0,0,0,.621-5.088,34.654,34.654,0,0,0-38.72,30.033h0A34.942,34.942,0,0,0,44.9,98.851,33.571,33.571,0,0,0,67.86,112.13a26.242,26.242,0,0,0,4.344.248A34.757,34.757,0,0,0,106.58,82.1,2.509,2.509,0,0,0,104.47,79.242Z" transform="translate(332.503 213.498)" opacity="0.202"/>
    <path id="Path_475" data-name="Path 475" d="M104.049,50.957a2.55,2.55,0,0,0-3.6-.124L70.913,78.881,59.744,67.711a2.545,2.545,0,0,0-3.6,3.6L69.051,84.341a2.4,2.4,0,0,0,3.475,0L103.8,54.68A2.6,2.6,0,0,0,104.049,50.957Z" transform="translate(336.772 215.225)" opacity="0.202"/>
  </g>
</svg>
