<svg xmlns="http://www.w3.org/2000/svg" width="30.638" height="20.682" viewBox="0 0 30.638 20.682">
  <path id="icon-email" d="M.072,22.918V5.9q0-.03.089-.561l10.016,8.568L.19,23.509a2.5,2.5,0,0,1-.118-.591ZM1.4,4.157a1.273,1.273,0,0,1,.5-.089H28.879a1.673,1.673,0,0,1,.532.089l-10.045,8.6-1.33,1.064-2.63,2.157-2.63-2.157-1.33-1.064Zm.03,20.5L11.506,15l3.9,3.161L19.306,15l10.075,9.661a1.419,1.419,0,0,1-.5.089H1.9a1.338,1.338,0,0,1-.473-.089Zm19.2-10.754,9.986-8.568a1.763,1.763,0,0,1,.089.561V22.918a2.265,2.265,0,0,1-.089.591Z" transform="translate(-0.072 -4.068)" fill="#030000" opacity="0.5"/>
</svg>
