<svg xmlns="http://www.w3.org/2000/svg" width="30.822" height="34.885" viewBox="0 0 30.822 34.885">
  <g id="Group_157815" data-name="Group 157815" transform="translate(-1873 -475.986)">
    <path id="Path_514" data-name="Path 514" d="M130.429,34.88H105.719a.728.728,0,0,1-.727-.727V8.835a.725.725,0,0,1,.185-.484L112.445.237a.727.727,0,0,1,.542-.243h17.443a.728.728,0,0,1,.727.727V17.436a.727.727,0,1,1-1.454,0V1.447h-16.39l-6.867,7.665V33.426H129.7V30.519a.727.727,0,1,1,1.454,0v3.634a.729.729,0,0,1-.727.727Z" transform="translate(1768.008 475.992)" fill="#777"/>
    <path id="Path_515" data-name="Path 515" d="M123.93,21.1h-6.541a.727.727,0,1,1,0-1.454H123.2V12.383a.727.727,0,1,1,1.454,0v7.994a.727.727,0,0,1-.727.727Z" transform="translate(1757.065 465.056)" fill="#777"/>
    <path id="Path_516" data-name="Path 516" d="M264.623,293.082H247.18A2.183,2.183,0,0,1,245,290.9V282.18a2.183,2.183,0,0,1,2.18-2.18h17.443a2.183,2.183,0,0,1,2.18,2.18V290.9A2.183,2.183,0,0,1,264.623,293.082ZM247.18,281.453a.728.728,0,0,0-.727.727V290.9a.728.728,0,0,0,.727.727h17.443a.729.729,0,0,0,.727-.727V282.18a.729.729,0,0,0-.727-.727Z" transform="translate(1636.722 213.429)" fill="#373068"/>
    <path id="Path_517" data-name="Path 517" d="M317.694,343.815l-1.8-2.657h.736a.189.189,0,0,1,.118.029.247.247,0,0,1,.068.076l1.425,2.188a1,1,0,0,1,.08-.174l1.346-2a.461.461,0,0,1,.074-.09.146.146,0,0,1,.1-.03h.7l-1.81,2.622,1.871,2.839h-.731a.2.2,0,0,1-.132-.044.445.445,0,0,1-.077-.1l-1.465-2.289a.784.784,0,0,1-.068.151l-1.424,2.137a.522.522,0,0,1-.079.1.161.161,0,0,1-.124.044h-.686l1.881-2.8Z" transform="translate(1570.32 156.081)" fill="#777"/>
    <path id="Path_518" data-name="Path 518" d="M405.035,346.023H407.4v.621h-3.1v-5.46h.74Z" transform="translate(1487.35 156.056)" fill="#777"/>
    <path id="Path_519" data-name="Path 519" d="M463.282,341.1a.292.292,0,0,1-.074.086.147.147,0,0,1-.1.03.277.277,0,0,1-.151-.064c-.057-.044-.129-.091-.215-.145a2,2,0,0,0-.318-.142,1.392,1.392,0,0,0-.448-.064,1.435,1.435,0,0,0-.437.067.934.934,0,0,0-.32.182.7.7,0,0,0-.191.272.866.866,0,0,0-.065.333.606.606,0,0,0,.113.379.957.957,0,0,0,.3.259,2.364,2.364,0,0,0,.419.185c.156.051.318.1.481.161s.326.119.48.188a1.637,1.637,0,0,1,.419.266,1.211,1.211,0,0,1,.3.394,1.28,1.28,0,0,1,.113.571,1.828,1.828,0,0,1-.122.672,1.573,1.573,0,0,1-.356.548,1.675,1.675,0,0,1-.575.365,2.119,2.119,0,0,1-.775.134,2.385,2.385,0,0,1-.968-.192,2.262,2.262,0,0,1-.746-.52l.214-.349a.269.269,0,0,1,.074-.071.172.172,0,0,1,.1-.029.3.3,0,0,1,.182.086,2.369,2.369,0,0,0,.259.191,1.9,1.9,0,0,0,.374.188,1.513,1.513,0,0,0,.538.08,1.44,1.44,0,0,0,.468-.073.947.947,0,0,0,.349-.208.883.883,0,0,0,.218-.314,1.043,1.043,0,0,0,.077-.409.672.672,0,0,0-.113-.406.949.949,0,0,0-.3-.264,2.069,2.069,0,0,0-.417-.18l-.48-.151a4.991,4.991,0,0,1-.48-.182,1.512,1.512,0,0,1-.417-.27,1.207,1.207,0,0,1-.3-.41,1.42,1.42,0,0,1-.113-.608,1.405,1.405,0,0,1,.113-.56,1.445,1.445,0,0,1,.327-.481,1.555,1.555,0,0,1,.526-.333,1.871,1.871,0,0,1,.723-.125,2.3,2.3,0,0,1,.834.145,1.928,1.928,0,0,1,.658.42l-.179.35Z" transform="translate(1435.076 156.99)" fill="#777"/>
    <path id="Path_26144" data-name="Path 26144" d="M58.547,251.992a1.1,1.1,0,0,1-1.106,1.09H33.106A1.1,1.1,0,0,1,32,251.992v-10.9A1.1,1.1,0,0,1,33.106,240H57.441a1.1,1.1,0,0,1,1.106,1.09Z" transform="translate(1845.275 253.429)" fill="#13c5bd"/>
    <text id="XLS" transform="translate(1883.275 502.429)" fill="#fff" font-size="7" font-family="ADPortsGroup-Bold, ADPortsGroup" font-weight="700" letter-spacing="0.1em"><tspan x="0" y="0">XLS</tspan></text>
  </g>
</svg>
