<svg xmlns="http://www.w3.org/2000/svg" width="36.158" height="27.888" viewBox="0 0 36.158 27.888">
  <path id="Path_26184" data-name="Path 26184" d="M226.086-1256.635l-18.079,4.17,18.079,4.169,14.576-3.361v8.216a.369.369,0,0,0-.379.36v.474a.366.366,0,0,0,.338.358,2.434,2.434,0,0,0-.078,1.831l1.391-.086a4.334,4.334,0,0,1-.734-1.745.367.367,0,0,0,.344-.358v-.474a.369.369,0,0,0-.38-.36v-8.332l3-.692Zm-12.551,6.786v18.368l12.551,2.734,12.551-2.734v-18.368l-12.551,2.9Zm1.676,2.018,10.352,2.385v14.959l-10.352-2.255Zm21.75,0v15.09l-10.353,2.255v-14.959Zm-19.589,2.328a.417.417,0,0,0-.434.3.378.378,0,0,0,.05.3.417.417,0,0,0,.26.178l5.759,1.325a.421.421,0,0,0,.506-.289.4.4,0,0,0-.306-.479l-5.763-1.329a.447.447,0,0,0-.072-.01Zm17.427,0a.447.447,0,0,0-.072.01l-5.763,1.329a.4.4,0,0,0-.306.479.421.421,0,0,0,.506.288l5.759-1.325a.418.418,0,0,0,.26-.178.378.378,0,0,0,.05-.3.417.417,0,0,0-.434-.3Zm-17.427,2.678a.416.416,0,0,0-.434.3.378.378,0,0,0,.05.3.419.419,0,0,0,.26.179l5.759,1.329a.439.439,0,0,0,.317-.047.4.4,0,0,0,.189-.246.4.4,0,0,0-.306-.479l-5.763-1.329a.422.422,0,0,0-.072-.01Zm17.427,0a.421.421,0,0,0-.072.01l-5.763,1.329a.4.4,0,0,0-.306.479.4.4,0,0,0,.189.246.44.44,0,0,0,.317.047l5.759-1.329a.418.418,0,0,0,.26-.179.378.378,0,0,0,.05-.3.416.416,0,0,0-.434-.3Zm-17.427,2.682a.417.417,0,0,0-.434.3.378.378,0,0,0,.05.3.419.419,0,0,0,.26.178l5.759,1.329a.421.421,0,0,0,.506-.289.4.4,0,0,0-.306-.479l-5.763-1.329a.42.42,0,0,0-.072-.01Zm17.427,0a.42.42,0,0,0-.072.01l-5.763,1.329a.4.4,0,0,0-.306.479.421.421,0,0,0,.506.289l5.759-1.329a.418.418,0,0,0,.26-.179.378.378,0,0,0,.05-.3.417.417,0,0,0-.434-.3Zm-17.427,2.679a.417.417,0,0,0-.434.3.378.378,0,0,0,.05.3.418.418,0,0,0,.26.179l5.759,1.325a.421.421,0,0,0,.506-.29.4.4,0,0,0-.306-.478l-5.763-1.329a.421.421,0,0,0-.072-.01Zm17.427,0a.433.433,0,0,0-.072.01l-5.763,1.329a.4.4,0,0,0-.306.478.421.421,0,0,0,.506.289l5.759-1.325a.417.417,0,0,0,.26-.178.378.378,0,0,0,.05-.3.417.417,0,0,0-.434-.3Zm-17.427,2.679a.416.416,0,0,0-.434.3.378.378,0,0,0,.05.3.417.417,0,0,0,.26.178l5.759,1.329a.439.439,0,0,0,.317-.047.4.4,0,0,0,.189-.246.4.4,0,0,0-.306-.479l-5.763-1.329a.447.447,0,0,0-.072-.01Zm17.427,0a.46.46,0,0,0-.072.01l-5.763,1.329a.4.4,0,0,0-.306.479.4.4,0,0,0,.189.246.439.439,0,0,0,.317.047l5.759-1.329a.419.419,0,0,0,.26-.178.378.378,0,0,0,.05-.3.416.416,0,0,0-.434-.3Zm0,0" transform="translate(-208.007 1256.635)" fill="#2d3955"/>
</svg>
