<svg xmlns="http://www.w3.org/2000/svg" width="33.559" height="32.181" viewBox="0 0 33.559 32.181">
  <g id="Group_158450" data-name="Group 158450" transform="translate(-7.221 -3.804)">
    <g id="Group_158067" data-name="Group 158067" transform="translate(24 18.804)">
      <g id="Ellipse_440" data-name="Ellipse 440" transform="translate(2.386)" fill="none" stroke="#2d3955" stroke-width="2">
        <ellipse cx="5.505" cy="5.782" rx="5.505" ry="5.782" stroke="none"/>
        <ellipse cx="5.505" cy="5.782" rx="4.505" ry="4.782" fill="none"/>
      </g>
      <path id="Path_25755" data-name="Path 25755" d="M0,0A9.107,9.107,0,0,1,8.314,4.769,5.3,5.3,0,0,0,7.2,8.024a12.717,12.717,0,0,0,.941,3.428A8.984,8.984,0,0,1,3.5,15.181a9.941,9.941,0,0,1-3.5.6" transform="translate(0 17.181) rotate(-90)" fill="none" stroke="#2d3955" stroke-width="2"/>
    </g>
    <g id="Group_158068" data-name="Group 158068" transform="translate(8.221 18.804)">
      <g id="Ellipse_440-2" data-name="Ellipse 440" transform="translate(2.386)" fill="none" stroke="#2d3955" stroke-width="2">
        <ellipse cx="5.505" cy="5.782" rx="5.505" ry="5.782" stroke="none"/>
        <ellipse cx="5.505" cy="5.782" rx="4.505" ry="4.782" fill="none"/>
      </g>
      <path id="Path_25755-2" data-name="Path 25755" d="M0,0A9.107,9.107,0,0,1,8.314,4.769,5.3,5.3,0,0,0,7.2,8.024a12.717,12.717,0,0,0,.941,3.428A8.984,8.984,0,0,1,3.5,15.181a9.941,9.941,0,0,1-3.5.6" transform="translate(0 17.181) rotate(-90)" fill="none" stroke="#2d3955" stroke-width="2"/>
    </g>
    <g id="Group_158069" data-name="Group 158069" transform="translate(16.109 3.804)">
      <g id="Ellipse_440-3" data-name="Ellipse 440" transform="translate(2.386)" fill="none" stroke="#2d3955" stroke-width="2">
        <ellipse cx="5.505" cy="5.782" rx="5.505" ry="5.782" stroke="none"/>
        <ellipse cx="5.505" cy="5.782" rx="4.505" ry="4.782" fill="none"/>
      </g>
      <path id="Path_25755-3" data-name="Path 25755" d="M0,0A9.107,9.107,0,0,1,8.314,4.769,5.3,5.3,0,0,0,7.2,8.024a12.717,12.717,0,0,0,.941,3.428A8.984,8.984,0,0,1,3.5,15.181a9.941,9.941,0,0,1-3.5.6" transform="translate(0 17.181) rotate(-90)" fill="none" stroke="#2d3955" stroke-width="2"/>
    </g>
  </g>
</svg>
