<svg xmlns="http://www.w3.org/2000/svg" width="17.604" height="10.48" viewBox="0 0 17.604 10.48">
  <path id="Icon_zocial-email" data-name="Icon zocial-email" d="M.072,13.62V5q0-.015.051-.284L5.878,9.053.14,13.919a1.137,1.137,0,0,1-.068-.3ZM.836,4.113a.819.819,0,0,1,.289-.045h15.5a1.079,1.079,0,0,1,.306.045L11.157,8.47l-.764.539L8.882,10.1,7.372,9.009,6.608,8.47ZM.853,14.5l5.789-4.9,2.241,1.6,2.241-1.6,5.789,4.9a.913.913,0,0,1-.289.045H1.125A.861.861,0,0,1,.853,14.5Zm11.034-5.45,5.738-4.342A.8.8,0,0,1,17.676,5V13.62a1.023,1.023,0,0,1-.051.3Z" transform="translate(-0.072 -4.068)" fill="#2d3955"/>
</svg>
