<svg xmlns="http://www.w3.org/2000/svg" width="75.777" height="75.777" viewBox="0 0 75.777 75.777">
  <g id="noun_occupying_2400947" transform="translate(0.5 0.5)" opacity="0.1">
    <path id="Path_491" data-name="Path 491" d="M109.426,59.168A1.168,1.168,0,0,0,108.258,58H103v2.337h5.258a1.168,1.168,0,0,0,1.168-1.168Z" transform="translate(-42.828 -24.117)" stroke="#707070" stroke-width="1"/>
    <path id="Path_492" data-name="Path 492" d="M35.052,42H3.505A3.509,3.509,0,0,0,0,45.505V91.072a1.168,1.168,0,1,0,2.337,0V45.505a1.17,1.17,0,0,1,1.168-1.168H35.052a1.17,1.17,0,0,1,1.168,1.168V91.072a1.168,1.168,0,1,0,2.337,0V45.505A3.509,3.509,0,0,0,35.052,42Z" transform="translate(0 -17.464)" stroke="#707070" stroke-width="1"/>
    <path id="Path_493" data-name="Path 493" d="M35.031,58H15.168a1.168,1.168,0,0,0,0,2.337H35.031a1.168,1.168,0,0,0,0-2.337Z" transform="translate(-5.821 -24.117)" stroke="#707070" stroke-width="1"/>
    <path id="Path_494" data-name="Path 494" d="M35.031,68H15.168a1.168,1.168,0,0,0,0,2.337H35.031a1.168,1.168,0,1,0,0-2.337Z" transform="translate(-5.821 -28.275)" stroke="#707070" stroke-width="1"/>
    <path id="Path_495" data-name="Path 495" d="M35.031,78H15.168a1.168,1.168,0,1,0,0,2.337H35.031a1.168,1.168,0,1,0,0-2.337Z" transform="translate(-5.821 -32.433)" stroke="#707070" stroke-width="1"/>
    <path id="Path_496" data-name="Path 496" d="M35.031,88H15.168a1.168,1.168,0,0,0,0,2.337H35.031a1.168,1.168,0,1,0,0-2.337Z" transform="translate(-5.821 -36.591)" stroke="#707070" stroke-width="1"/>
    <path id="Path_497" data-name="Path 497" d="M35.031,98H15.168a1.168,1.168,0,0,0,0,2.337H35.031a1.168,1.168,0,1,0,0-2.337Z" transform="translate(-5.821 -40.749)" stroke="#707070" stroke-width="1"/>
    <path id="Path_498" data-name="Path 498" d="M35.031,108H15.168a1.168,1.168,0,0,0,0,2.337H35.031a1.168,1.168,0,1,0,0-2.337Z" transform="translate(-5.821 -44.907)" stroke="#707070" stroke-width="1"/>
    <path id="Path_499" data-name="Path 499" d="M35.031,118H15.168a1.168,1.168,0,1,0,0,2.337H35.031a1.168,1.168,0,1,0,0-2.337Z" transform="translate(-5.821 -49.065)" stroke="#707070" stroke-width="1"/>
    <path id="Path_500" data-name="Path 500" d="M114.1,42H103v2.337h11.1a1.17,1.17,0,0,1,1.168,1.168V62.736a19.36,19.36,0,0,1,2.337,3.369v-20.6A3.509,3.509,0,0,0,114.1,42Z" transform="translate(-42.828 -17.464)" stroke="#707070" stroke-width="1"/>
    <path id="Path_503" data-name="Path 503" d="M79,13.168V47.5a19.339,19.339,0,0,1,2.337-1.533v-32.8a1.168,1.168,0,0,0-2.337,0Z" transform="translate(-32.849 -4.99)" stroke="#707070" stroke-width="1"/>
    <path id="Path_504" data-name="Path 504" d="M47,13.168V27.189h2.337V13.168a1.168,1.168,0,0,0-2.337,0Z" transform="translate(-19.543 -4.99)" stroke="#707070" stroke-width="1"/>
    <path id="Path_505" data-name="Path 505" d="M33.337,3.505a1.17,1.17,0,0,1,1.168-1.168H67.22a1.17,1.17,0,0,1,1.168,1.168V38.7a19.354,19.354,0,0,1,2.337-.147V3.505A3.509,3.509,0,0,0,67.22,0H34.505A3.509,3.509,0,0,0,31,3.505V22.2h2.337Z" transform="translate(-12.89)" stroke="#707070" stroke-width="1"/>
    <path id="Path_506" data-name="Path 506" d="M64.168,12A1.168,1.168,0,0,0,63,13.168v14.29a5.846,5.846,0,0,1,2.337,1.408v-15.7A1.168,1.168,0,0,0,64.168,12Z" transform="translate(-26.196 -4.99)" stroke="#707070" stroke-width="1"/>
  </g>
</svg>
