<svg xmlns="http://www.w3.org/2000/svg" width="75.312" height="46.624" viewBox="0 0 75.312 46.624">
  <g id="Group_155897" data-name="Group 155897" transform="translate(-329.4 -256.481)">
    <path id="Path_471" data-name="Path 471" d="M36.945,14.2H17.517A1.405,1.405,0,0,0,16.1,15.617a1.461,1.461,0,0,0,1.417,1.417H37.029a1.405,1.405,0,0,0,1.417-1.417A1.479,1.479,0,0,0,36.945,14.2Z" transform="translate(313.3 248.255)" fill="#2d3955"/>
    <path id="Path_472" data-name="Path 472" d="M36.945,23.4H17.517a1.417,1.417,0,0,0,0,2.835H37.029a1.405,1.405,0,0,0,1.417-1.417A1.479,1.479,0,0,0,36.945,23.4Z" transform="translate(313.3 246.726)" fill="#2d3955"/>
    <path id="Path_473" data-name="Path 473" d="M27.273,33.2H17.517a1.417,1.417,0,0,0,0,2.835h9.756a1.405,1.405,0,0,0,1.417-1.417A1.461,1.461,0,0,0,27.273,33.2Z" transform="translate(313.3 245.097)" fill="#2d3955"/>
    <path id="Path_474" data-name="Path 474" d="M82.557,67.344a1.748,1.748,0,0,0-1.918,1.5A19.9,19.9,0,0,1,58.377,86.022,19.355,19.355,0,0,1,45.2,78.434a19.855,19.855,0,0,1,18.26-31.852,1.722,1.722,0,0,0,.417-3.419A23.283,23.283,0,0,0,37.865,63.342h0a23.477,23.477,0,0,0,4.669,17.176A22.555,22.555,0,0,0,57.96,89.44a17.632,17.632,0,0,0,2.918.167,23.352,23.352,0,0,0,23.1-20.345A1.686,1.686,0,0,0,82.557,67.344Z" transform="translate(319.118 213.498)" fill="#2d3955"/>
    <path id="Path_475" data-name="Path 475" d="M88.085,50.692a1.713,1.713,0,0,0-2.418-.083L65.823,69.452l-7.5-7.5A1.71,1.71,0,0,0,55.9,64.366l8.672,8.755a1.612,1.612,0,0,0,2.335,0L87.919,53.193A1.748,1.748,0,0,0,88.085,50.692Z" transform="translate(316.175 212.307)" fill="#2d3955"/>
  </g>
</svg>
