<svg xmlns="http://www.w3.org/2000/svg" viewBox="0 0 328.44 61.6"><defs><style>.cls-1{fill:#8cb6e1;}.cls-2{fill:#fff;}.cls-3{fill:#001c32;}</style></defs><g id="Layer_2" data-name="Layer 2"><g id="Layer_1-2" data-name="Layer 1"><path class="cls-1" d="M68,44.46c0-8.7.16-18.62.16-34.22C63.83,7.43,57.41,9.44,53,12.31c-.42.26-.9-.32-.47-.64A19.76,19.76,0,0,1,55.29,9.6c6.2-4,10.77-3.55,15.6-.85V48.39L69.45,48C61.28,46.27,54,49.29,47.59,54.6a54.08,54.08,0,0,0-5.83,5.78C47.7,51,57.09,43.77,68,44.46"/><path class="cls-1" d="M44.36,59.11c9.39-8.07,19-13.37,31.46-8.23.48-9.87.74-15.65,1.91-35.81-1,0-5.09-.37-4.83-.32-.21-.05-.16-.37,0-.32a25,25,0,0,0,5.15.27c-.11,24,.05,24.4-.16,39.47-4.24-1.7-6.9-2.92-12.73-2.92-8.33.48-13.43,3.82-20.69,8.12-.16.11-.32-.16-.16-.26"/><path class="cls-1" d="M51,57.51c10.29-2.81,20.21-2.75,31,1.76-.16-20.86-.1-16.72-.21-38.84a4,4,0,0,0-2.39.05c-.1.05-.15-.16-.05-.16a4.9,4.9,0,0,1,2.76-.11c1,21.76.64,18.26,1.54,41.39-11.3-4.3-22-5.57-36.88-2.23-.05,0-.1,0-.1,0-.16-.37,4.08-1.7,4.35-1.81"/><path class="cls-1" d="M15.6,44.46c0-8.7-.16-18.62-.16-34.22,4.35-2.81,10.77-.8,15.17,2.07.43.26.91-.32.48-.64A19.76,19.76,0,0,0,28.33,9.6c-6.2-4-10.82-3.6-15.6-.9V48.34l1.44-.43c8.17-1.7,15.49,1.33,21.86,6.63a54.7,54.7,0,0,1,5.83,5.79C35.87,51,26.48,43.77,15.6,44.46"/><path class="cls-1" d="M39.21,59.11C29.82,51,20.27,45.68,7.75,50.88,7.27,41,7,35.23,5.84,15.07c1,0,5.09-.37,4.82-.32.22-.05.16-.37-.05-.32a24.94,24.94,0,0,1-5.15.27c.11,24,0,24.4.16,39.47,4.25-1.7,6.9-2.92,12.74-2.92,8.33.48,13.42,3.82,20.69,8.12.16.11.32-.16.16-.26"/><path class="cls-1" d="M32.58,57.51c-10.3-2.81-20.22-2.75-31,1.76.16-20.86.11-16.72.21-38.84a4,4,0,0,1,2.39.05c.11.05.16-.16,0-.16a4.87,4.87,0,0,0-2.75-.11C.58,41.92.9,38.41,0,61.55c11.3-4.3,22-5.57,36.88-2.23,0,0,.1,0,.1,0,.11-.32-4.14-1.65-4.4-1.76"/><path class="cls-2" d="M41.81,59.11a.89.89,0,0,1-.69-.38c-.53-.74-1-3-1.22-11.56v-1.7l-.11.16a1,1,0,0,1-.37.58.84.84,0,0,1-.48.16h-.15a18.11,18.11,0,0,1-6.58-2.7.88.88,0,0,1-.38-.59.69.69,0,0,1,.16-.63l.11-.11-.16.16c-1.86,1.91-5.46,4.46-6.74,4.83-.05,0-.16.05-.21.05a1,1,0,0,1-.64-.26.85.85,0,0,1-.21-.85c.37-1.28,2.92-4.88,4.78-6.74l.16-.16-.16.1a.88.88,0,0,1-.53.16h-.16a1,1,0,0,1-.59-.37A17.69,17.69,0,0,1,25,32.68a.69.69,0,0,1,.16-.63.84.84,0,0,1,.58-.37l.27-.06H24.41c-9.29-.42-11.15-.9-11.78-1.38a.91.91,0,0,1-.37-.69.92.92,0,0,1,.37-.69c.74-.53,3-.95,11.56-1.22h1.65l-.16-.05a1,1,0,0,1-.58-.37,1,1,0,0,1-.16-.69A17.51,17.51,0,0,1,27.64,20a.77.77,0,0,1,.59-.37h.16a.69.69,0,0,1,.47.16l.11.1-.16-.16C26.9,17.83,24.35,14.22,24,13a.82.82,0,0,1,.21-.85.87.87,0,0,1,.63-.27.36.36,0,0,1,.22.05c1.27.38,4.82,2.92,6.73,4.78l.11.11-.11-.11a.73.73,0,0,1-.15-.64,1,1,0,0,1,.37-.58,16.73,16.73,0,0,1,6.58-2.65h.16a1,1,0,0,1,.53.16.88.88,0,0,1,.37.58l.05.27V12C40,3.45,40.43,1.22,41,.48a1.09,1.09,0,0,1,.8-.48.92.92,0,0,1,.69.37c.53.74.95,3,1.22,11.57v1.7l0-.22a1,1,0,0,1,.37-.58.84.84,0,0,1,.48-.16h.16a17.53,17.53,0,0,1,6.58,2.71.87.87,0,0,1,.37.58.71.71,0,0,1-.16.64l-.05.1.1-.1c1.86-1.91,5.47-4.46,6.74-4.78,0,0,.16-.05.21-.05a1,1,0,0,1,.64.26.83.83,0,0,1,.21.85c-.37,1.28-2.92,4.83-4.83,6.74,0,.05-.1.05-.1.11l.16-.11a.92.92,0,0,1,.53-.16h.16a1.06,1.06,0,0,1,.58.37,17.32,17.32,0,0,1,2.65,6.58.69.69,0,0,1-.16.64.85.85,0,0,1-.58.37l-.21.05h1.75c8.54.27,10.82.69,11.57,1.22a.92.92,0,0,1,.37.69.91.91,0,0,1-.37.69c-.75.53-3,1-11.62,1.22h-1.7l.21.06a1,1,0,0,1,.58.37,1,1,0,0,1,.16.64,18,18,0,0,1-2.7,6.57.88.88,0,0,1-.59.38h-.16a1.08,1.08,0,0,1-.53-.16l0-.06.11.11c1.91,1.86,4.45,5.46,4.77,6.74a.83.83,0,0,1-.21.85.87.87,0,0,1-.64.26.33.33,0,0,1-.21-.05c-1.27-.37-4.88-2.92-6.74-4.83L51.41,42l.16.21a.82.82,0,0,1,.16.69,1,1,0,0,1-.37.59,17.75,17.75,0,0,1-6.58,2.65h-.16a1,1,0,0,1-.53-.16.87.87,0,0,1-.37-.58l0-.27V46.9c-.27,8.6-.69,10.83-1.22,11.57-.11.48-.38.64-.64.64Zm.48-19c.37.27,1.11,1.06,1.38,3.5a.79.79,0,0,1,.58-.42,13.73,13.73,0,0,0,5.31-2.12.81.81,0,0,1,.47-.16.7.7,0,0,1,.32.05,7.3,7.3,0,0,1-1.48-3.29.81.81,0,0,1,.26-.74.88.88,0,0,1,.64-.27h.1a7.38,7.38,0,0,1,3.24,1.44.84.84,0,0,1,.11-.8,13.12,13.12,0,0,0,2.17-5.25.84.84,0,0,1,.43-.59c-2.28-.26-3.13-.95-3.45-1.32a1.08,1.08,0,0,1-.21-.59h0a1.08,1.08,0,0,1,.21-.58c.32-.37,1.17-1.06,3.45-1.33a.82.82,0,0,1-.43-.58,14.05,14.05,0,0,0-2.12-5.31.87.87,0,0,1-.11-.79,8,8,0,0,1-3.29,1.48h-.1a1,1,0,0,1-.64-.26,1,1,0,0,1-.26-.74A7.19,7.19,0,0,1,50.3,18.2a.72.72,0,0,1-.32.05.84.84,0,0,1-.48-.16,13.71,13.71,0,0,0-5.3-2.17.84.84,0,0,1-.59-.43c-.26,2.28-1,3.13-1.27,3.4a.79.79,0,0,1-.58.21h0a1.16,1.16,0,0,1-.59-.21c-.37-.32-1.06-1.17-1.27-3.4a.62.62,0,0,1-.58.43A14,14,0,0,0,34,18a.84.84,0,0,1-.48.16.74.74,0,0,1-.32-.05,8,8,0,0,1,1.49,3.29.81.81,0,0,1-.27.74.85.85,0,0,1-.63.26h-.11A7.23,7.23,0,0,1,30.46,21a.87.87,0,0,1-.11.8,12.87,12.87,0,0,0-2.18,5.3.82.82,0,0,1-.42.59c2.33.26,3.18,1,3.45,1.32a1.18,1.18,0,0,1,.21.53.6.6,0,0,1-.21.53c-.27.38-1.12,1.06-3.45,1.33a.83.83,0,0,1,.42.58A13.91,13.91,0,0,0,30.3,37.3a.86.86,0,0,1,.1.8,8.51,8.51,0,0,1,3.19-1.49s.15,0,.21,0h.1a.85.85,0,0,1,.75.85v.15a8.44,8.44,0,0,1-1.44,3.24.74.74,0,0,1,.32,0,.84.84,0,0,1,.48.16,13,13,0,0,0,5.31,2.17.87.87,0,0,1,.58.43c.26-2.28,1-3.13,1.27-3.4a.8.8,0,0,1,.59-.21,1.68,1.68,0,0,1,.53.21m-.53-2.86a7.7,7.7,0,1,1,7.69-7.7,7.7,7.7,0,0,1-7.69,7.7"/><path class="cls-3" d="M29.5,40.06a24.6,24.6,0,0,0-4.56,6.31c1-.26,4.45-2.65,6.36-4.56a7.91,7.91,0,0,0,2.5-4.3,8.58,8.58,0,0,0-4.3,2.55m12.31.74c-.05.05-1.27.9-1.11,5.63,0,1.59.26,10.66,1.11,11.77h0c.8-1.16,1-10.24,1.06-11.77.21-4.73-1-5.58-1.06-5.63m-9.13,2.12a16.25,16.25,0,0,0,6.21,2.6L39.16,44a15.2,15.2,0,0,1-5.63-2.34Zm26-14.48c-4.72-.16-5.57,1-5.63,1.11s.91,1.28,5.63,1.12c1.59-.06,10.66-.27,11.78-1.12h0c-1.12-.85-10.19-1.06-11.78-1.11m-.9,4-1.49-.27a15.35,15.35,0,0,1-2.33,5.63l1.22.85a16.24,16.24,0,0,0,2.6-6.21m-8,5.09a8,8,0,0,0,2.49,4.3c1.91,1.91,5.36,4.3,6.37,4.56-.27-1-2.65-4.45-4.56-6.36a8.73,8.73,0,0,0-4.3-2.5M44.41,44l.26,1.48A17.06,17.06,0,0,0,50.94,43l-.85-1.22A15.3,15.3,0,0,1,44.41,44m-16-5.36,1.22-.85a14.64,14.64,0,0,1-2.29-5.62l-1.48.26a16.22,16.22,0,0,0,2.55,6.21M41.76,18.3c.05-.05,1.27-.9,1.11-5.62C42.82,11.09,42.61,2,41.76.9h0c-.8,1.17-1,10.24-1.06,11.78-.16,4.72,1,5.57,1.06,5.62m9.12-2.12a16.39,16.39,0,0,0-6.26-2.6l-.26,1.49A15.38,15.38,0,0,1,50,17.4ZM41.81,18.3Zm12.26.75c1.91-1.91,4.29-5.36,4.56-6.37-1,.27-4.46,2.65-6.37,4.56a8,8,0,0,0-2.49,4.3,8.17,8.17,0,0,0,4.3-2.49m2.17,7.85,1.49-.21a16.37,16.37,0,0,0-2.55-6.26L54,21.28a14.63,14.63,0,0,1,2.28,5.62M30.51,29.55c-.05-.05-.9-1.27-5.63-1.11-1.59,0-10.66.26-11.77,1.11h0c1.16.8,10.24,1,11.77,1.06,4.78.22,5.63-1,5.63-1.06m8.65-14.48-.27-1.49a16.44,16.44,0,0,0-6.26,2.55l.85,1.22a15.3,15.3,0,0,1,5.68-2.28M25.84,26.69l1.48.26a15.4,15.4,0,0,1,2.34-5.62l-1.22-.85a15.56,15.56,0,0,0-2.6,6.21m8-5.15a8,8,0,0,0-2.5-4.3C29.39,15.33,26,13,24.94,12.68c.26,1,2.65,4.46,4.56,6.37a8.13,8.13,0,0,0,4.3,2.49m1.17,8a6.84,6.84,0,1,0,6.84-6.84A6.86,6.86,0,0,0,35,29.55"/><path class="cls-3" d="M102.4,50H98.66l-.91,2.7h-2l3.68-10.12h2.35l3.68,10.12h-2.08ZM102,48.64l-.41-1.24c-.35-1-.7-2.22-1-3.33h0c-.28,1.11-.63,2.29-1,3.33l-.42,1.24Z"/><path class="cls-3" d="M106.76,42.68h3.61c2.28,0,4,.63,4,2.5a2.31,2.31,0,0,1-1.94,2.22v.06c1.6.28,2.5,1,2.5,2.43,0,2-1.8,3-4.3,3h-3.88Zm3.4,4.16c1.59,0,2.21-.55,2.21-1.45s-.69-1.32-2.14-1.32h-1.46v2.77Zm.27,4.57c1.67,0,2.57-.55,2.57-1.73s-.9-1.52-2.57-1.52h-1.66v3.25Z"/><path class="cls-3" d="M116.88,42.68h2V48.5c0,2.22.9,2.91,2.28,2.91s2.29-.69,2.29-2.91V42.68h1.94v5.69c0,3.32-1.66,4.64-4.23,4.64s-4.29-1.32-4.29-4.64Z"/><path class="cls-3" d="M131.64,42.68h3c3.46,0,5.47,1.67,5.47,5s-2,5.13-5.33,5.13h-3.12Zm2.84,8.66c2.29,0,3.53-1.17,3.53-3.67s-1.31-3.53-3.53-3.53h-.83v7.2Z"/><path class="cls-3" d="M142.31,42.68h2v4.09h4.5V42.68h2V52.8h-2V48.3h-4.5v4.5h-2Z"/><path class="cls-3" d="M158.8,50h-3.74l-.9,2.7h-2l3.67-10.12h2.36l3.67,10.12h-2.08Zm-.42-1.39L158,47.4c-.35-1-.69-2.22-1-3.33h-.07c-.28,1.11-.62,2.29-1,3.33l-.42,1.24Z"/><path class="cls-3" d="M163.1,42.68h3.6c2.29,0,4,.63,4,2.5a2.32,2.32,0,0,1-1.94,2.22v.06c1.59.28,2.49,1,2.49,2.43,0,2-1.8,3-4.29,3H163.1Zm3.39,4.16c1.6,0,2.22-.55,2.22-1.45s-.69-1.32-2.15-1.32h-1.45v2.77Zm.28,4.57c1.66,0,2.56-.55,2.56-1.73s-.9-1.52-2.56-1.52h-1.66v3.25Z"/><path class="cls-3" d="M173.28,42.68h2V52.8h-2Z"/><path class="cls-3" d="M181.6,42.68h2.14l2,5,.77,1.94h.07l.76-1.94,1.94-5h2.22V52.8h-1.88V48.16a23.5,23.5,0,0,1,.28-3.19h-.07l-.9,2.29L187,51.83h-.9l-1.94-4.57-.9-2.29h-.07c.07.9.21,2.29.21,3.19V52.8h-1.8Z"/><path class="cls-3" d="M199.54,50H195.8l-.9,2.7h-2l3.67-10.12h2.36l3.67,10.12h-2.08Zm-.48-1.39-.42-1.24c-.34-1-.69-2.22-1-3.33h-.07c-.27,1.11-.62,2.29-1,3.33l-.41,1.24Z"/><path class="cls-3" d="M209.94,52.8l-2.43-3.95h-1.66V52.8h-2V42.68h3.74c2.36,0,4.16.77,4.16,3a2.91,2.91,0,0,1-2.22,2.91l2.7,4.23Zm-4.09-5.4h1.59c1.53,0,2.36-.56,2.36-1.74s-.83-1.59-2.36-1.59h-1.59Z"/><path class="cls-3" d="M214.09,42.68h2V52.8h-2Z"/><path class="cls-3" d="M221.09,44.21h-3.25V42.68h8.45v1.53H223V52.8h-1.94Z"/><path class="cls-3" d="M228.16,42.68h2V52.8h-2Z"/><path class="cls-3" d="M232.94,42.68h2.15l2,5,.76,1.94h.07l.76-1.94,1.94-5h2.22V52.8H241V48.16a23.5,23.5,0,0,1,.28-3.19h-.07l-.9,2.29-1.94,4.57h-.9l-1.94-4.57L234.6,45h-.06c.06.9.2,2.29.2,3.19V52.8h-1.8V42.68Z"/><path class="cls-3" d="M245.69,42.68h6.72v1.53h-4.78v2.56h4V48.3h-4v3h4.92V52.8h-6.93V42.68Z"/><path class="cls-3" d="M263.57,50h-3.74l-.9,2.7h-2l3.67-10.12h2.35l3.68,10.12h-2.08Zm-.49-1.39-.41-1.24c-.35-1-.7-2.22-1-3.33h-.07c-.28,1.11-.62,2.29-1,3.33l-.42,1.24Z"/><path class="cls-3" d="M272.3,42.48a4.54,4.54,0,0,1,3.19,1.31l-1.11,1.11a3.16,3.16,0,0,0-2.08-.83c-1.8,0-3.19,1.39-3.19,3.67s1.25,3.67,3.12,3.67a3.18,3.18,0,0,0,2.36-1l1.1,1.11A4.54,4.54,0,0,1,272.23,53a4.89,4.89,0,0,1-5.13-5.2A5,5,0,0,1,272.3,42.48Z"/><path class="cls-3" d="M282.76,50H279l-.9,2.7h-2l3.67-10.12h2.36l3.67,10.12h-2.08Zm-.48-1.39-.42-1.24c-.35-1-.69-2.22-1-3.33h-.07c-.27,1.11-.62,2.29-1,3.33l-.41,1.24Z"/><path class="cls-3" d="M287.06,42.68h3c3.46,0,5.47,1.67,5.47,5s-2,5.13-5.33,5.13h-3.12V42.68Zm2.84,8.66c2.29,0,3.53-1.17,3.53-3.67s-1.31-3.53-3.53-3.53h-.83v7.2Z"/><path class="cls-3" d="M297.73,42.68h6.72v1.53h-4.78v2.56h4V48.3h-4v3h4.92V52.8h-6.93V42.68Z"/><path class="cls-3" d="M306.88,42.68H309l2,5,.77,1.94h.06l.77-1.94,1.94-5h2.21V52.8h-1.87V48.16a23.5,23.5,0,0,1,.28-3.19h-.07l-.9,2.29-1.94,4.57h-.9l-1.94-4.57-.9-2.29h-.07c.07.9.21,2.29.21,3.19V52.8h-1.8V42.68Z"/><path class="cls-3" d="M321.5,49.06l-3.4-6.38h2.15l1.25,2.57c.34.76.62,1.45,1,2.21h.07c.34-.76.69-1.45,1-2.21l1.25-2.57h2.08l-3.39,6.38V52.8h-2Z"/><path class="cls-3" d="M98.1,18h.83c.14,0,.21-.07.35-.14a.53.53,0,0,0,.14-.35V16.28a.51.51,0,0,0-.14-.34.53.53,0,0,0-.35-.14H98.1a.53.53,0,0,0-.35.14.56.56,0,0,0-.13.34v1.18c0,.14.07.21.13.35S98,18,98.1,18Z"/><path class="cls-3" d="M101.57,18h.83c.14,0,.2-.07.34-.14a.53.53,0,0,0,.14-.35V16.28a.48.48,0,0,0-.48-.48h-.83a.53.53,0,0,0-.35.14c-.14.07-.14.2-.14.34v1.18c0,.14.07.21.14.35A.39.39,0,0,0,101.57,18Z"/><path class="cls-3" d="M110.16,32.22h-.76a.53.53,0,0,0-.35.14c-.14.07-.14.21-.14.35v1.1a.36.36,0,0,0,.14.28c.14.07.21.14.35.14h.76a.51.51,0,0,0,.34-.14.53.53,0,0,0,.14-.28V32.64a.53.53,0,0,0-.14-.35A.58.58,0,0,0,110.16,32.22Z"/><path class="cls-3" d="M109.74,30a.74.74,0,0,0,.35-.27.53.53,0,0,0,.14-.35A7.53,7.53,0,0,0,110.3,28V22a.49.49,0,0,0-.42-.42h-1a.36.36,0,0,0-.28.14.42.42,0,0,0-.07.28v5.61a1.31,1.31,0,0,1-.13.69,1.63,1.63,0,0,1-.77.14h-1.87a1.76,1.76,0,0,1-1.11-.28c-.27-.14-.41-.55-.41-1.11V21c0-.14,0-.21-.07-.28a.36.36,0,0,0-.28-.14c-.14-.07-.34-.07-.55-.14a2.16,2.16,0,0,0-.7-.07c-.2,0-.48-.07-.69-.07h-.62a7.42,7.42,0,0,0-2.22.28,5.68,5.68,0,0,0-1.73.83,3.27,3.27,0,0,0-1.11,1.46A5.08,5.08,0,0,0,95.81,25v.56a4.57,4.57,0,0,0,1,3.19,4.23,4.23,0,0,0,3.05,1.1h.21a6,6,0,0,0,1.66-.2,1.81,1.81,0,0,0,1.11-.7,1.87,1.87,0,0,0,1,1,3.64,3.64,0,0,0,1.6.28h2.28a2.52,2.52,0,0,0,.76-.07c.28,0,.49-.07.7-.07A1.18,1.18,0,0,0,109.74,30ZM102.4,27a1.32,1.32,0,0,1-.14.56,1.86,1.86,0,0,1-.42.35l-.62.2c-.21,0-.42.07-.69.07h-.42a2.31,2.31,0,0,1-1.94-.69,3,3,0,0,1-.55-2v-.49a3.32,3.32,0,0,1,.27-1.45,2.41,2.41,0,0,1,.77-.9,4,4,0,0,1,1.1-.49,8.53,8.53,0,0,1,1.39-.13h.62c.21,0,.49.06.77.06V27Z"/><path class="cls-3" d="M106.76,32.22H106c-.14,0-.21.07-.35.14a.53.53,0,0,0-.13.35v1.1a.36.36,0,0,0,.13.28.53.53,0,0,0,.35.14h.76a.49.49,0,0,0,.49-.42V32.64a.53.53,0,0,0-.14-.35A.52.52,0,0,0,106.76,32.22Z"/><path class="cls-3" d="M145.57,32.22h-.91c-.13,0-.2.07-.34.14a.53.53,0,0,0-.14.35v1.1a.36.36,0,0,0,.14.28.53.53,0,0,0,.34.14h.91c.13,0,.2-.07.34-.14a.53.53,0,0,0,.14-.28V32.64a.53.53,0,0,0-.14-.35A.75.75,0,0,0,145.57,32.22Z"/><path class="cls-3" d="M152.08,14.14h-1a.36.36,0,0,0-.28.13.53.53,0,0,0-.14.28v13a1.42,1.42,0,0,1-.13.69,1.63,1.63,0,0,1-.77.14h-2.35c-.14,0-.35-.07-.49-.07s-.34-.07-.41-.14a.55.55,0,0,1-.28-.28V22a.36.36,0,0,0-.14-.27.53.53,0,0,0-.28-.14h-1a.34.34,0,0,0-.27.14.54.54,0,0,0-.14.27v5.55a.56.56,0,0,1-.14.41.5.5,0,0,1-.42.21,1.15,1.15,0,0,1-.48.07h-1.46c-.14,0-.2,0-.2-.07s-.07-.07-.14-.21l-.83-2.14-.21-.56a11,11,0,0,0-1.32-2.42,7.87,7.87,0,0,0-1.52-1.53,6.11,6.11,0,0,0-1.81-.76,9.22,9.22,0,0,0-2-.21,5.15,5.15,0,0,0-1,.07,4,4,0,0,0-1,.14.53.53,0,0,0-.35.14c-.07.07-.07.14-.07.28v.9c0,.2.14.34.49.27s.55-.07.83-.07h.69a6,6,0,0,1,3.19.77,5.69,5.69,0,0,1,1.87,2.42L139,26.4l.76,1.87H116.46V21.9a.36.36,0,0,0-.14-.28.33.33,0,0,0-.27-.14h-1a.36.36,0,0,0-.28.14.53.53,0,0,0-.14.28v10a2.49,2.49,0,0,1-.14.83,1.23,1.23,0,0,1-.34.49,4.82,4.82,0,0,1-.56.21c-.21,0-.48.07-.83.07h-.21c-.27,0-.41.14-.41.34v.9a.33.33,0,0,0,.34.35h.63a4.3,4.3,0,0,0,1.73-.28A2.23,2.23,0,0,0,116.26,33a7.27,7.27,0,0,0,.06-1.18V30.21h26.27a9.3,9.3,0,0,0,1.31-.14,2.55,2.55,0,0,0,1.25-.55,2.55,2.55,0,0,0,1.25.55,10.17,10.17,0,0,0,1.45.14h2a3.29,3.29,0,0,0,.83-.07c.28,0,.49-.07.7-.07s.34-.07.48-.07a.74.74,0,0,0,.35-.27c.07-.07.07-.21.14-.35s.07-.35.07-.55V14.55a.36.36,0,0,0-.14-.28C152.29,14.2,152.15,14.14,152.08,14.14Z"/><path class="cls-3" d="M157.55,14.14h-1a.34.34,0,0,0-.27.13.53.53,0,0,0-.14.28V29.8a.36.36,0,0,0,.14.27.5.5,0,0,0,.27.14h1a.36.36,0,0,0,.28-.14.54.54,0,0,0,.14-.27V14.55a.36.36,0,0,0-.14-.28A.29.29,0,0,0,157.55,14.14Z"/><path class="cls-3" d="M170.44,35.48h-.76a.53.53,0,0,0-.35.14.51.51,0,0,0-.14.34v1a.36.36,0,0,0,.14.28.53.53,0,0,0,.35.14h.76c.14,0,.21-.07.35-.14a.28.28,0,0,0,.14-.28V35.89a.51.51,0,0,0-.14-.34A.76.76,0,0,0,170.44,35.48Z"/><path class="cls-3" d="M173.91,35.48h-.84c-.13,0-.2.07-.34.14a.51.51,0,0,0-.14.34v1a.36.36,0,0,0,.14.28.53.53,0,0,0,.34.14h.84c.13,0,.2-.07.34-.14a.53.53,0,0,0,.14-.28V35.89a.51.51,0,0,0-.14-.34A.61.61,0,0,0,173.91,35.48Z"/><path class="cls-3" d="M188.94,32.22H188c-.14,0-.21.07-.35.14a.59.59,0,0,0-.13.35v1.1a.39.39,0,0,0,.13.28.53.53,0,0,0,.35.14h.9c.14,0,.21-.07.35-.14a.53.53,0,0,0,.14-.28V32.64a.53.53,0,0,0-.14-.35A.76.76,0,0,0,188.94,32.22Z"/><path class="cls-3" d="M204.74,18h.9a.48.48,0,0,0,.49-.49V16.28a.51.51,0,0,0-.14-.34.53.53,0,0,0-.35-.14h-.9c-.14,0-.21.07-.35.14a.5.5,0,0,0-.13.34v1.18a.72.72,0,0,0,.13.35A.53.53,0,0,0,204.74,18Z"/><path class="cls-3" d="M209.45,21.62a5,5,0,0,0-1.8-1,8.52,8.52,0,0,0-2.42-.28,5.17,5.17,0,0,0-1,.07,8.38,8.38,0,0,0-1.25.14,9.2,9.2,0,0,0-1.32.35,3.41,3.41,0,0,0-1.25.62v-7a.39.39,0,0,0-.13-.28.51.51,0,0,0-.28-.13h-1a.36.36,0,0,0-.28.13.53.53,0,0,0-.14.28V28.34h-7.83c-.2,0-.34-.07-.48-.07s-.35-.07-.42-.14a.51.51,0,0,1-.27-.27V22a.36.36,0,0,0-.14-.28.53.53,0,0,0-.28-.14h-1a.36.36,0,0,0-.28.14.53.53,0,0,0-.14.28v5.61a.61.61,0,0,1-.13.41.5.5,0,0,1-.42.21,1.19,1.19,0,0,1-.49.07h-2.35a2.37,2.37,0,0,1-.9-.14c-.14-.07-.21-.27-.21-.62V22.38c0-.14,0-.21-.07-.28s-.14-.07-.28-.13l-1.31-.21a10.2,10.2,0,0,0-1.46-.07,5.67,5.67,0,0,0-3.6,1,4.12,4.12,0,0,0-1.32,3.32v5.82A5.37,5.37,0,0,1,174,32H172.8a7.2,7.2,0,0,1-2.64-.41,3.64,3.64,0,0,1-1.45-1.18,3.36,3.36,0,0,1-.62-1.66,18.29,18.29,0,0,1-.14-2,4.5,4.5,0,0,1,.07-.9c.07-.35.07-.77.13-1s-.06-.42-.34-.42h-.9a.4.4,0,0,0-.42.42c-.07.2-.07.41-.14.69s-.07.48-.07.76-.07.49-.07.69v.49a10.11,10.11,0,0,0,.28,2.63,5.14,5.14,0,0,0,1,2,5.38,5.38,0,0,0,2,1.32,9.74,9.74,0,0,0,3.12.48,18.72,18.72,0,0,0,2-.07l1.8-.2a.46.46,0,0,0,.42-.49V26.19a3.44,3.44,0,0,1,.2-1.31,2.52,2.52,0,0,1,.56-.84,2.18,2.18,0,0,1,.9-.41,6.09,6.09,0,0,1,1.25-.14h.69c.21,0,.48.07.76.07V28a2.28,2.28,0,0,0,.55,1.74,2.81,2.81,0,0,0,1.88.48h2a9.3,9.3,0,0,0,1.31-.14,2.55,2.55,0,0,0,1.25-.55,2.55,2.55,0,0,0,1.25.55,10.17,10.17,0,0,0,1.45.14h17.67a3.64,3.64,0,0,0,1-.07.69.69,0,0,0,.55-.28.57.57,0,0,0,.21-.41c.07-.21.07-.42.14-.69s.07-.56.07-.84v-2a8.19,8.19,0,0,0-.35-2.49A2.15,2.15,0,0,0,209.45,21.62Zm-.28,4.92v1c0,.28-.06.41-.06.55a1,1,0,0,1-.21.28c-.07.07-.14.07-.28.07h-7a6,6,0,0,1-1.11-.07V23.28a3.77,3.77,0,0,1,1-.55,8.34,8.34,0,0,1,1.25-.35,7.68,7.68,0,0,1,1.18-.14c.41,0,.69-.07,1-.07a7.7,7.7,0,0,1,1.87.21,3.52,3.52,0,0,1,1.32.62,3,3,0,0,1,.76,1.25,5.45,5.45,0,0,1,.27,1.94Z"/><path class="cls-3" d="M230.59,32.22h-.9c-.14,0-.21.07-.35.14a.53.53,0,0,0-.14.35v1.1a.36.36,0,0,0,.14.28.53.53,0,0,0,.35.14h.9c.13,0,.2-.07.34-.14a.53.53,0,0,0,.14-.28V32.64a.53.53,0,0,0-.14-.35A.51.51,0,0,0,230.59,32.22Z"/><path class="cls-3" d="M232.66,22a.36.36,0,0,0-.13-.28.36.36,0,0,0-.28-.14h-1a.36.36,0,0,0-.28.14.42.42,0,0,0-.07.28v5.61a1.28,1.28,0,0,1-.14.69,1.55,1.55,0,0,1-.76.14h-7.83V21.06c0-.13,0-.2-.07-.27s-.14-.07-.27-.14a6.16,6.16,0,0,0-1.39-.28,13.17,13.17,0,0,0-1.66-.07A4.92,4.92,0,0,0,215,21.62a4.72,4.72,0,0,0-1.32,3.53v.56A4.27,4.27,0,0,0,214.86,29a4.45,4.45,0,0,0,3.32,1.11h2.15V31a3.29,3.29,0,0,1-.28,1.25,1.56,1.56,0,0,1-.76.76,2.92,2.92,0,0,1-1.18.35,10.07,10.07,0,0,1-1.52.07h-1.8c-.21,0-.35.07-.35.27v.91a.25.25,0,0,0,.07.2c.07.07.14.07.28.14a1.16,1.16,0,0,1,.41.07h1.87a8.38,8.38,0,0,0,2-.21,3.71,3.71,0,0,0,1.6-.69,4.09,4.09,0,0,0,1-1.32,4.38,4.38,0,0,0,.41-2V30h8a2.56,2.56,0,0,0,.76-.07c.28,0,.49-.07.7-.07s.34-.06.48-.06a.7.7,0,0,0,.35-.28.53.53,0,0,0,.14-.35,8.63,8.63,0,0,0,.06-1.38V22Zm-12.33,6.44h-2.15a2.63,2.63,0,0,1-2.08-.69,3.31,3.31,0,0,1-.62-2.22v-.42a3.08,3.08,0,0,1,.83-2.28,3,3,0,0,1,2.22-.77h1c.28,0,.55.07.83.07v6.31Z"/><path class="cls-3" d="M238.62,12.82h-1.45c-.14-.07-.21-.21-.35-.35a2.1,2.1,0,0,1-.14-.76c0-.62.35-1,1.11-1h.63c.2,0,.27-.07.27-.21v-.27c0-.14-.07-.21-.2-.28s-.28-.07-.42-.07h-.42a2.3,2.3,0,0,0-1.45.41,1.58,1.58,0,0,0-.56,1.32,1.85,1.85,0,0,0,.07.62,1.41,1.41,0,0,0,.28.56h-.35c-.27,0-.41.07-.41.21v.34c0,.14.14.28.41.28h2.91c.14,0,.21,0,.28-.07s.07-.07.07-.21V13C239,12.89,238.9,12.82,238.62,12.82Z"/><path class="cls-3" d="M237.86,15.24h-1a.36.36,0,0,0-.28.14.59.59,0,0,0-.13.28V29.73a.39.39,0,0,0,.13.27.53.53,0,0,0,.28.14h1a.36.36,0,0,0,.28-.14.5.5,0,0,0,.14-.27V15.66c0-.14,0-.21-.14-.28A.53.53,0,0,0,237.86,15.24Z"/><path class="cls-3" d="M249.09,18h.83c.14,0,.21-.07.34-.14a.53.53,0,0,0,.14-.35V16.28a.51.51,0,0,0-.14-.34.49.49,0,0,0-.34-.14h-.83a.53.53,0,0,0-.35.14.51.51,0,0,0-.14.34v1.18c0,.14.07.21.14.35A.39.39,0,0,0,249.09,18Z"/><path class="cls-3" d="M252.62,18h.83c.14,0,.21-.07.35-.14a.53.53,0,0,0,.14-.35V16.28a.51.51,0,0,0-.14-.34.53.53,0,0,0-.35-.14h-.83a.53.53,0,0,0-.35.14c-.13.07-.13.2-.13.34v1.18a.72.72,0,0,0,.13.35A.39.39,0,0,0,252.62,18Z"/><path class="cls-3" d="M258.86,32.22H258a.48.48,0,0,0-.49.49v1.1a.36.36,0,0,0,.14.28.53.53,0,0,0,.35.14h.83c.14,0,.2-.07.34-.14a.53.53,0,0,0,.14-.28V32.64a.53.53,0,0,0-.14-.35A.6.6,0,0,0,258.86,32.22Z"/><path class="cls-3" d="M262.32,32.22h-.83a.53.53,0,0,0-.35.14c-.14.07-.14.21-.14.35v1.1a.36.36,0,0,0,.14.28c.14.07.21.14.35.14h.83c.14,0,.21-.07.35-.14a.53.53,0,0,0,.14-.28V32.64a.53.53,0,0,0-.14-.35A.52.52,0,0,0,262.32,32.22Z"/><path class="cls-3" d="M279.57,30a.74.74,0,0,0,.35-.27.53.53,0,0,0,.14-.35,7.53,7.53,0,0,0,.07-1.39V22a.49.49,0,0,0-.42-.42h-1a.36.36,0,0,0-.27.14.42.42,0,0,0-.07.28v5.61a1.28,1.28,0,0,1-.14.69,1.61,1.61,0,0,1-.76.14h-1.67a.87.87,0,0,1-.41-.07,1.3,1.3,0,0,1-.49-.14,1.43,1.43,0,0,1-.41-.28.6.6,0,0,1-.21-.48c0-.14.07-.35.07-.55V25.15a4.56,4.56,0,0,0-1.11-3.39,5.08,5.08,0,0,0-6.51,0,4.65,4.65,0,0,0-1.18,3.39v2.08a1.94,1.94,0,0,1-.07.63.38.38,0,0,1-.21.34l-.41.21a1.19,1.19,0,0,1-.49.07h-1.66c-.14,0-.35-.07-.49-.07s-.34-.07-.41-.14a.55.55,0,0,1-.28-.28V22.1a.36.36,0,0,0-.14-.27.53.53,0,0,0-.28-.14h-1a.36.36,0,0,0-.27.14.5.5,0,0,0-.14.27v5.48a.56.56,0,0,1-.14.41.5.5,0,0,1-.42.21,1.12,1.12,0,0,1-.48.07h-1.87a1.74,1.74,0,0,1-1.11-.28c-.28-.13-.42-.55-.42-1.1v-6c0-.14,0-.21-.07-.28a.34.34,0,0,0-.27-.14c-.14-.07-.35-.07-.56-.14a2.1,2.1,0,0,0-.69-.07c-.21,0-.49-.07-.69-.07h-.63a7.07,7.07,0,0,0-2.21.28,6,6,0,0,0-1.74.83,3.25,3.25,0,0,0-1.1,1.46,5.09,5.09,0,0,0-.42,2.15v.55a4.54,4.54,0,0,0,1,3.19A4.2,4.2,0,0,0,251,29.73h.21a6,6,0,0,0,1.66-.21,1.87,1.87,0,0,0,1.11-.69,1.87,1.87,0,0,0,1,1,3.75,3.75,0,0,0,1.59.27h1.25a9.3,9.3,0,0,0,1.31-.14,2.51,2.51,0,0,0,1.25-.55,2.55,2.55,0,0,0,1.25.55,10.17,10.17,0,0,0,1.45.14h.7a8.49,8.49,0,0,0,1.45-.14,2.34,2.34,0,0,0,1.11-.62,3.39,3.39,0,0,0,1.46,1.11,6.52,6.52,0,0,0,2.14.35,3.78,3.78,0,0,0,3.4-1.46,2.34,2.34,0,0,0,1.11.62,4.39,4.39,0,0,0,1.38.21h1.87a2.62,2.62,0,0,0,.77-.07c.27,0,.48-.07.69-.07A.57.57,0,0,0,279.57,30ZM253.45,27a1.32,1.32,0,0,1-.14.56,1.82,1.82,0,0,1-.41.35l-.63.2c-.2,0-.41.07-.69.07h-.41a2.28,2.28,0,0,1-1.94-.69,3,3,0,0,1-.56-2v-.49a3.19,3.19,0,0,1,.28-1.45,2.38,2.38,0,0,1,.76-.9,4.08,4.08,0,0,1,1.11-.49A8.4,8.4,0,0,1,252.2,22h.63c.21,0,.48.06.76.06V27Zm19-.69a3.85,3.85,0,0,1-.56,2.22,2.45,2.45,0,0,1-2,.69,3,3,0,0,1-1.66-.41,2,2,0,0,1-.83-1.32,6.3,6.3,0,0,1-.07-1.18v-1a3.44,3.44,0,0,1,.62-2.22,2.58,2.58,0,0,1,2-.76,2.31,2.31,0,0,1,1.94.76,4,4,0,0,1,.56,2.22v1Z"/><path class="cls-3" d="M280.06,32.22h-.83a.53.53,0,0,0-.35.14c-.14.07-.14.21-.14.35v1.1a.36.36,0,0,0,.14.28c.14.07.21.14.35.14h.83c.14,0,.21-.07.35-.14a.51.51,0,0,0,.13-.28V32.64a.53.53,0,0,0-.13-.35A.52.52,0,0,0,280.06,32.22Z"/><path class="cls-3" d="M276.6,32.22h-.84a.53.53,0,0,0-.34.14.53.53,0,0,0-.14.35v1.1a.36.36,0,0,0,.14.28.53.53,0,0,0,.34.14h.84c.13,0,.2-.07.34-.14a.53.53,0,0,0,.14-.28V32.64a.53.53,0,0,0-.14-.35A.51.51,0,0,0,276.6,32.22Z"/><path class="cls-3" d="M290.94,26.05v-.41a7.28,7.28,0,0,0-.35-2.15,4.78,4.78,0,0,0-.9-1.66,4.34,4.34,0,0,0-1.59-1.11,6.33,6.33,0,0,0-2.43-.42h-.76a5.3,5.3,0,0,0-1,.14.53.53,0,0,0-.35.14c-.06.07-.06.14-.06.28v.9c0,.21.13.34.41.27s.49-.06.76-.06h.7a3.75,3.75,0,0,1,2.91.9,4,4,0,0,1,1,2.77v2.63h-5.82a.49.49,0,0,0-.42.42V29.8a.36.36,0,0,0,.14.27.42.42,0,0,0,.28.07h7.06c.35,0,.49-.14.49-.41V26.05Z"/><path class="cls-3" d="M320.87,22c-1-.91-2.63-1.32-4.78-1.32h-1.25c-.48,0-1,.07-1.73.07a2,2,0,0,1,.28-.9A8.05,8.05,0,0,1,314,18.5l2-3.81a.35.35,0,0,0,0-.42c-.07-.07-.14-.07-.28-.07h-1a.53.53,0,0,0-.35.14c-.07.07-.14.21-.21.28l-1.59,2.91c-.21.42-.42.83-.56,1.18l-.41,1a4.86,4.86,0,0,0-.28,1,4.48,4.48,0,0,0-.07,1v.41a.44.44,0,0,0,.42.35h4.22a15.61,15.61,0,0,1,1.94.14,5.27,5.27,0,0,1,1.53.62,2.82,2.82,0,0,1,1,1.18,5.11,5.11,0,0,1,.34,1.94c0,.69,0,1.39-.06,2.08H297.73a1.85,1.85,0,0,1-.62-.07.59.59,0,0,1-.42-.14.72.72,0,0,1-.28-.34,2,2,0,0,1-.07-.7V14.55a.36.36,0,0,0-.14-.28.32.32,0,0,0-.27-.13h-1a.36.36,0,0,0-.28.13.53.53,0,0,0-.14.28v13a3.51,3.51,0,0,0,.21,1.32,1.87,1.87,0,0,0,.55.83,1.91,1.91,0,0,0,.91.41,6,6,0,0,0,1.17.14h23.77a2.81,2.81,0,0,0,.83-.07.46.46,0,0,0,.49-.41,2.41,2.41,0,0,1,.07-.63c0-.27.07-.55.07-.83V26.4C322.47,24.25,321.91,22.8,320.87,22Z"/><path class="cls-3" d="M328.15,12.82h-1.46c-.14-.07-.2-.21-.34-.35a2.1,2.1,0,0,1-.14-.76c0-.62.34-1,1.11-1h.62c.21,0,.28-.07.28-.21v-.27c0-.14-.07-.21-.21-.28s-.28-.07-.42-.07h-.41a2.33,2.33,0,0,0-1.46.41,1.6,1.6,0,0,0-.55,1.32,1.85,1.85,0,0,0,.07.62,1.54,1.54,0,0,0,.27.56h-.34q-.42,0-.42.21v.34c0,.14.14.28.42.28h2.91c.14,0,.21,0,.28-.07s.07-.07.07-.21V13C328.49,12.89,328.36,12.82,328.15,12.82Z"/><path class="cls-3" d="M327.32,15.24h-1a.36.36,0,0,0-.28.14.53.53,0,0,0-.14.28V29.73A.36.36,0,0,0,326,30a.53.53,0,0,0,.28.14h1a.34.34,0,0,0,.27-.14.5.5,0,0,0,.14-.27V15.66a.36.36,0,0,0-.14-.28A.34.34,0,0,0,327.32,15.24Z"/></g></g></svg>