<svg id="Layer_2" data-name="Layer 2" xmlns="http://www.w3.org/2000/svg" width="264.526" height="51.608" viewBox="0 0 264.526 51.608">
  <g id="Layer_1" data-name="Layer 1" transform="translate(0)">
    <path id="Path_4796" data-name="Path 4796" d="M23.889,16.388a.119.119,0,0,0,.238,0s1.427-4,1.719-5.092a13.394,13.394,0,0,0-.086-1.567A64.538,64.538,0,0,0,24.148.119C24.148,0,24.073,0,24.008,0s-.108,0-.13.119a64.536,64.536,0,0,0-1.622,9.61,13.394,13.394,0,0,0-.086,1.622c.292,1.081,1.719,5.092,1.719,5.092" transform="translate(1.796)" fill="#fff"/>
    <path id="Path_4797" data-name="Path 4797" d="M20.73,20.74a5.016,5.016,0,1,0,7.092,0,5.016,5.016,0,0,0-7.092,0" transform="translate(1.561 1.561)" fill="#fff"/>
    <path id="Path_4798" data-name="Path 4798" d="M21.518,12.1l-.454-1.351a14.183,14.183,0,0,0-4.324,1.795L17.4,13.82A12.788,12.788,0,0,1,21.518,12.1" transform="translate(1.356 0.871)" fill="#fff"/>
    <path id="Path_4799" data-name="Path 4799" d="M31.358,12.544a14.183,14.183,0,0,0-4.324-1.794L26.58,12.1a12.788,12.788,0,0,1,4.075,1.719Z" transform="translate(2.154 0.871)" fill="#fff"/>
    <path id="Path_4800" data-name="Path 4800" d="M16.78,35.466A14.464,14.464,0,0,0,21.1,37.26l.454-1.362a12.767,12.767,0,0,1-4.075-1.708Z" transform="translate(1.36 2.77)" fill="#fff"/>
    <path id="Path_4801" data-name="Path 4801" d="M26.58,35.9l.454,1.33a14.464,14.464,0,0,0,4.324-1.795L30.7,34.16a12.767,12.767,0,0,1-4.075,1.708" transform="translate(2.154 2.768)" fill="#fff"/>
    <path id="Path_4802" data-name="Path 4802" d="M12.524,31.357,13.8,30.7a12.518,12.518,0,0,1-1.7-4.1l-1.373.432a14.464,14.464,0,0,0,1.794,4.324" transform="translate(0.869 2.155)" fill="#fff"/>
    <path id="Path_4803" data-name="Path 4803" d="M10.73,21.081l1.351.454A13.037,13.037,0,0,1,13.8,17.459L12.524,16.8a14.183,14.183,0,0,0-1.794,4.324" transform="translate(0.869 1.361)" fill="#fff"/>
    <path id="Path_4804" data-name="Path 4804" d="M37.23,27.034l-1.362-.454a12.767,12.767,0,0,1-1.708,4.075l1.276.659a14.183,14.183,0,0,0,1.795-4.281" transform="translate(2.768 2.154)" fill="#fff"/>
    <path id="Path_4805" data-name="Path 4805" d="M34.17,17.463a12.788,12.788,0,0,1,1.719,4.075l1.34-.454a14.464,14.464,0,0,0-1.794-4.324Z" transform="translate(2.769 1.358)" fill="#fff"/>
    <path id="Path_4806" data-name="Path 4806" d="M24.147,32.589a.119.119,0,1,0-.238,0s-1.427,4-1.719,5.092a13.393,13.393,0,0,0,.086,1.622A64.536,64.536,0,0,0,23.9,48.858c0,.1.065.119.13.119s.108,0,.13-.119A64.538,64.538,0,0,0,25.779,39.3a13.4,13.4,0,0,0,.086-1.622c-.292-1.081-1.719-5.092-1.719-5.092" transform="translate(1.798 2.631)" fill="#fff"/>
    <path id="Path_4807" data-name="Path 4807" d="M11.3,25.846c1.081-.292,5.092-1.719,5.092-1.719a.119.119,0,0,0,0-.238s-4-1.427-5.092-1.719a13.394,13.394,0,0,0-1.622.086A64.536,64.536,0,0,0,.119,23.878c-.1,0-.119.065-.119.13s0,.108.119.13a64.537,64.537,0,0,0,9.61,1.622,13.394,13.394,0,0,0,1.622.086" transform="translate(0 1.796)" fill="#fff"/>
    <path id="Path_4808" data-name="Path 4808" d="M48.858,23.878A64.537,64.537,0,0,0,39.3,22.257a13.394,13.394,0,0,0-1.622-.086c-1.081.292-5.092,1.719-5.092,1.719a.119.119,0,1,0,0,.238s4,1.427,5.092,1.719a13.393,13.393,0,0,0,1.622-.086,64.538,64.538,0,0,0,9.556-1.611c.1,0,.119-.065.119-.13s0-.108-.119-.13" transform="translate(2.631 1.796)" fill="#fff"/>
    <path id="Path_4809" data-name="Path 4809" d="M12.471,14.957a12.572,12.572,0,0,0,.951,1.081c.865.573,4.951,2.465,4.951,2.465a.13.13,0,0,0,.173-.173s-1.935-4.043-2.465-4.908A12.571,12.571,0,0,0,15,12.471,29.188,29.188,0,0,0,8.644,8.46H8.471c-.043,0,0,.076,0,.173a29.188,29.188,0,0,0,4.011,6.313" transform="translate(0.685 0.685)" fill="#fff"/>
    <path id="Path_4810" data-name="Path 4810" d="M36.026,33.537a12.572,12.572,0,0,0-.951-1.081c-.865-.573-4.951-2.465-4.951-2.465a.13.13,0,0,0-.173.173s1.892,4.086,2.465,4.951a12.573,12.573,0,0,0,1.081.951,29.188,29.188,0,0,0,6.313,4.011h.173c.043,0,0-.076,0-.173a29.188,29.188,0,0,0-4.011-6.313" transform="translate(2.426 2.429)" fill="#fff"/>
    <path id="Path_4811" data-name="Path 4811" d="M18.524,30a.119.119,0,0,0-.151,0s-4.086,1.892-4.951,2.465a12.573,12.573,0,0,0-.951,1.081A29.187,29.187,0,0,0,8.46,39.861c0,.1,0,.13,0,.173s.076,0,.173,0a29.188,29.188,0,0,0,6.313-4.011,12.572,12.572,0,0,0,1.081-.951c.573-.865,2.465-4.951,2.465-4.951a.119.119,0,0,0,0-.151" transform="translate(0.685 2.428)" fill="#fff"/>
    <path id="Path_4812" data-name="Path 4812" d="M30,18.523a.119.119,0,0,0,.151,0s4.086-1.892,4.951-2.465a12.573,12.573,0,0,0,.951-1.081,29.187,29.187,0,0,0,4.011-6.313V8.491c0-.043-.076,0-.173,0A29.188,29.188,0,0,0,33.578,12.5a12.572,12.572,0,0,0-1.081.951c-.573.865-2.465,4.951-2.465,4.951a.119.119,0,0,0,0,.151" transform="translate(2.431 0.686)" fill="#fff"/>
    <path id="Path_4813" data-name="Path 4813" d="M69.705,26.877a.454.454,0,0,0-.378-.27,12.248,12.248,0,0,0-2.951,0,.443.443,0,0,0-.378.259,52.852,52.852,0,0,0-5.675,13.978.27.27,0,0,0,.281.378h2.94a.335.335,0,0,0,.357-.292c.184-.735.368-1.459.573-2.162h6.746c.205.724.4,1.449.584,2.162a.324.324,0,0,0,.357.292H75.11a.27.27,0,0,0,.292-.378,53.672,53.672,0,0,0-5.7-13.967m-4.324,9.059A43.36,43.36,0,0,1,67.9,29.882a40.907,40.907,0,0,1,2.519,6.054Z" transform="translate(4.886 2.149)" fill="#fff"/>
    <path id="Path_4814" data-name="Path 4814" d="M82.777,26.64H76.615a.313.313,0,0,0-.335.335v13.9a.313.313,0,0,0,.335.335h6.162c4.865,0,7.881-3.1,7.881-7.448,0-4.14-3.016-7.124-7.881-7.124m0,11.589H79.718V29.58h3.059c2.519,0,4.324,1.427,4.324,4.14a4.086,4.086,0,0,1-4.324,4.465" transform="translate(6.18 2.158)" fill="#fff"/>
    <path id="Path_4815" data-name="Path 4815" d="M103.2,26.643H97.024a.3.3,0,0,0-.324.335v13.9a.3.3,0,0,0,.324.335H99.8a.3.3,0,0,0,.324-.335V37.194h2.605c3.87,0,6.616-1.913,6.616-5.405s-2.227-5.189-6.162-5.189m-.432,7.643h-2.616V29.562h2.832c2.022,0,2.951.746,2.951,2.27s-.93,2.454-3.157,2.454" transform="translate(7.835 2.155)" fill="#fff"/>
    <path id="Path_4816" data-name="Path 4816" d="M118.121,26.35c-4.865,0-7.881,3.167-7.881,7.567s3.016,7.567,7.881,7.567,7.891-3.157,7.891-7.567S123,26.35,118.121,26.35m0,12.216c-2.508,0-4.324-1.578-4.324-4.616s1.859-4.616,4.324-4.616,4.324,1.578,4.324,4.616-1.859,4.616-4.324,4.616" transform="translate(8.932 2.135)" fill="#fff"/>
    <path id="Path_4817" data-name="Path 4817" d="M136.543,35.818a4.194,4.194,0,0,0,3.124-4.389c0-3.059-2.292-4.789-6.3-4.789h-5.6a.3.3,0,0,0-.335.335v13.9a.3.3,0,0,0,.335.335h2.767a.313.313,0,0,0,.335-.335V36.759h2.638a14.68,14.68,0,0,1,2.994,4.184.411.411,0,0,0,.4.249h2.886c.249,0,.378-.173.249-.4a16.507,16.507,0,0,0-3.492-4.994M133.3,33.84h-2.476V29.516h2.3c2.292,0,3.059.746,3.059,2.162S135.17,33.84,133.3,33.84" transform="translate(10.325 2.158)" fill="#fff"/>
    <path id="Path_4818" data-name="Path 4818" d="M153.454,26.64H140.665a.3.3,0,0,0-.335.335v2.216a.3.3,0,0,0,.335.335h4.465V40.877a.314.314,0,0,0,.335.335h2.767a.314.314,0,0,0,.335-.335V29.559h2.886c2.065,0,2.519-1.027,2.357-2.605a.324.324,0,0,0-.357-.313" transform="translate(11.37 2.158)" fill="#fff"/>
    <path id="Path_4819" data-name="Path 4819" d="M161.341,32.621l-1.481-.465c-1.708-.519-2.27-.865-2.27-1.686s.735-1.254,2.043-1.254a21.232,21.232,0,0,1,3.243.454,1.676,1.676,0,0,0,2.043-1.395l.141-.768a.324.324,0,0,0-.227-.411,16.01,16.01,0,0,0-5.016-.757c-3.47,0-5.654,1.708-5.654,4.205s2,3.751,4.227,4.454l2.259.735c1.005.3,1.5.616,1.481,1.405s-.9,1.276-2.789,1.276a8.4,8.4,0,0,1-4.519-1.351c-.205-.151-.368-.086-.411.184L154,40.026a.324.324,0,0,0,.216.389,11.761,11.761,0,0,0,4.7,1.081c4.681,0,6.637-1.859,6.637-4.584,0-2.346-1.373-3.448-4.248-4.324" transform="translate(12.477 2.134)" fill="#fff"/>
    <path id="Path_4820" data-name="Path 4820" d="M185.026,32.826h-5.405a.313.313,0,0,0-.335.335v2.346a.3.3,0,0,0,.335.335h2.746v1.794a6.41,6.41,0,0,1-3.135.724,4.075,4.075,0,0,1-4.378-4.411c0-2.973,2.043-4.519,4.724-4.519a14.41,14.41,0,0,1,2.27.195c1.308.205,2.043-.13,2.249-1.632l.086-.616a.335.335,0,0,0-.227-.4,12.453,12.453,0,0,0-4.184-.627c-5.189,0-8.432,3.167-8.432,7.567s3.016,7.567,7.891,7.567A9.913,9.913,0,0,0,185.2,39.56a.562.562,0,0,0,.184-.422V33.161a.3.3,0,0,0-.324-.335" transform="translate(13.882 2.135)" fill="#fff"/>
    <path id="Path_4821" data-name="Path 4821" d="M196.353,35.818a4.194,4.194,0,0,0,3.124-4.389c0-3.059-2.292-4.789-6.313-4.789h-5.589a.3.3,0,0,0-.335.335v13.9a.3.3,0,0,0,.335.335h2.767a.3.3,0,0,0,.324-.335V36.759h2.649a14.681,14.681,0,0,1,2.994,4.184.411.411,0,0,0,.4.249H199.6c.249,0,.378-.173.249-.4a16.9,16.9,0,0,0-3.492-4.994M193.11,33.84h-2.486V29.516h2.313c2.292,0,3.059.746,3.059,2.162s-1.016,2.162-2.886,2.162" transform="translate(15.171 2.158)" fill="#fff"/>
    <path id="Path_4822" data-name="Path 4822" d="M208.411,26.35c-4.875,0-7.891,3.167-7.891,7.567s3.016,7.567,7.891,7.567,7.881-3.157,7.881-7.567-3.016-7.567-7.881-7.567m0,12.216c-2.519,0-4.324-1.578-4.324-4.616s1.859-4.616,4.324-4.616,4.324,1.578,4.324,4.616-1.849,4.616-4.324,4.616" transform="translate(16.247 2.135)" fill="#fff"/>
    <path id="Path_4823" data-name="Path 4823" d="M230.676,26.647h-2.724a.314.314,0,0,0-.335.335V34.7c0,2.54-1.157,3.805-3.243,3.805s-3.243-1.351-3.243-3.805v-5.87c0-1.686-.724-2.281-2.162-2.281a9.092,9.092,0,0,0-1.005.054.324.324,0,0,0-.313.357v7.87c0,4.454,2.486,6.692,6.7,6.692s6.7-2.238,6.7-6.692V27.036a.313.313,0,0,0-.335-.335" transform="translate(17.635 2.151)" fill="#fff"/>
    <path id="Path_4824" data-name="Path 4824" d="M239.486,26.643h-6.162a.3.3,0,0,0-.324.335v13.9a.3.3,0,0,0,.324.335h2.767a.3.3,0,0,0,.335-.335V37.194h2.605c3.87,0,6.616-1.913,6.616-5.405s-2.227-5.189-6.162-5.189m-.432,7.643h-2.627V29.562h2.832c2.022,0,2.951.746,2.951,2.27s-.93,2.454-3.157,2.454" transform="translate(18.878 2.155)" fill="#fff"/>
    <path id="Path_4825" data-name="Path 4825" d="M65.188,19.86a1.254,1.254,0,1,0-1.254,1.168,1.168,1.168,0,0,0,1.254-1.168" transform="translate(5.079 1.501)" fill="#fff"/>
    <path id="Path_4826" data-name="Path 4826" d="M67.768,19.86a1.254,1.254,0,1,0-1.243,1.168,1.168,1.168,0,0,0,1.243-1.168" transform="translate(5.288 1.501)" fill="#fff"/>
    <path id="Path_4827" data-name="Path 4827" d="M80.717,17.227a1.449,1.449,0,1,0-1.449,1.34,1.33,1.33,0,0,0,1.449-1.34" transform="translate(6.306 1.27)" fill="#fff"/>
    <path id="Path_4828" data-name="Path 4828" d="M92.278,6.789a8.378,8.378,0,0,0-3.881.876c0-2.378,0-3.589,0-4.605a.227.227,0,0,0-.259-.259,11.1,11.1,0,0,0-1.124.141,1.362,1.362,0,0,0-1.265,1.449c0,2.032,0,5.156.086,8.648H83.673c-1.2,0-1.578-.4-1.578-1.395L82.2,7.081a.249.249,0,0,0-.281-.27,11.61,11.61,0,0,0-1.232.13,1.351,1.351,0,0,0-1.243,1.481l.13,3.243c0,.995-.324,1.395-1.427,1.395H75.792V7.049a.238.238,0,0,0-.259-.259H72.29c-2.746,0-4.216.93-4.216,4.054v2.281c0,2-.551,2.735-2.584,2.735s-2.638-.67-2.638-3.048V11.384a.249.249,0,0,0-.27-.27H60.42a.249.249,0,0,0-.27.27v1.243c0,4.324,2.032,5.978,5.308,5.978s5.319-1.427,5.319-5.708V10.93c0-.995.368-1.395,1.384-1.395h.865v5.978a.238.238,0,0,0,.259.259H77.9a4.021,4.021,0,0,0,3.124-.984c.422.724,1.168.984,2.5.984H97.748a.238.238,0,0,0,.27-.259V11.848c0-3.394-1.967-5.059-5.74-5.059m3.038,6.238H88.311V10.065A12.226,12.226,0,0,1,92.094,9.5c3.243,0,3.243,1.784,3.243,2.551Z" transform="translate(4.873 0.227)" fill="#fff"/>
    <path id="Path_4829" data-name="Path 4829" d="M89.209,5.449a1.34,1.34,0,1,0-1.023-.356,1.33,1.33,0,0,0,1.023.356" transform="translate(7.111 0.226)" fill="#fff"/>
    <path id="Path_4830" data-name="Path 4830" d="M111.907,17.227a1.449,1.449,0,1,0-1.449,1.34,1.34,1.34,0,0,0,1.449-1.34" transform="translate(8.833 1.27)" fill="#fff"/>
    <path id="Path_4831" data-name="Path 4831" d="M113.437,11.365l.108-4.562a.249.249,0,0,0-.281-.27,11.61,11.61,0,0,0-1.232.13,1.351,1.351,0,0,0-1.265,1.459l.141,3.243c0,.995-.335,1.395-1.438,1.395h-2.313V6.75a.238.238,0,0,0-.259-.259h-4.713c-2.605,0-4.854,1.589-4.854,4.519s2.249,4.465,4.854,4.465h2.357c0,1.005-.335,1.416-1.438,1.416H98.714c-.184,0-.259.119-.227.3l.465,2.216a.259.259,0,0,0,.281.227h3.762c2.681,0,4.162-.93,4.162-4.14h2.162c2.681,0,4.011-.93,4.1-4.14m-8.962,1.395h-2.292c-1.567,0-2.162-.778-2.162-1.719s.584-1.773,2.162-1.773h2.292Z" transform="translate(7.886 0.526)" fill="#fff"/>
    <path id="Path_4832" data-name="Path 4832" d="M114.76,3.424h2.9a.238.238,0,0,0,.259-.27V2.192a.249.249,0,0,0-.259-.27h-1.6c0-.195.13-.508.659-.508h.4a.249.249,0,0,0,.27-.27V.581a.249.249,0,0,0-.27-.27h-.724a1.73,1.73,0,0,0-1.9,1.611V3.154a.249.249,0,0,0,.27.27" transform="translate(9.276 0.024)" fill="#fff"/>
    <path id="Path_4833" data-name="Path 4833" d="M114.8,6.282c0,2.432.065,4.713.119,9.081a.238.238,0,0,0,.259.259h1.935a.249.249,0,0,0,.27-.281c.13-6.962.162-8.821.162-10.626a.419.419,0,0,0-.27-.065,8.632,8.632,0,0,0-1.211.141A1.362,1.362,0,0,0,114.8,6.282" transform="translate(9.301 0.377)" fill="#fff"/>
    <path id="Path_4834" data-name="Path 4834" d="M123.43,8.81h2.9a.238.238,0,0,0,.259-.27V7.578a.249.249,0,0,0-.259-.27h-1.6c0-.195.13-.508.659-.508h.4a.249.249,0,0,0,.27-.27V6.021a.249.249,0,0,0-.27-.27h-.724a1.73,1.73,0,0,0-1.9,1.611V8.54a.249.249,0,0,0,.27.27" transform="translate(9.979 0.465)" fill="#fff"/>
    <path id="Path_4835" data-name="Path 4835" d="M142.569,5.3a1.34,1.34,0,1,0-1.015-.349,1.34,1.34,0,0,0,1.015.349" transform="translate(11.434 0.213)" fill="#fff"/>
    <path id="Path_4836" data-name="Path 4836" d="M145.273,11.365l.108-4.562a.249.249,0,0,0-.281-.27,11.61,11.61,0,0,0-1.232.13A1.351,1.351,0,0,0,142.6,8.122l.141,3.243c0,.995-.335,1.395-1.438,1.395h-2.313V6.75a.238.238,0,0,0-.259-.259H135.49c-2.746,0-4.216.93-4.216,4.054v2.281c0,2-.551,2.735-2.573,2.735s-2.649-.67-2.649-3.048V11.084a.249.249,0,0,0-.27-.27H123.62a.249.249,0,0,0-.27.27v1.243c0,4.324,2.032,5.978,5.308,5.978s5.319-1.427,5.319-5.708V10.63c0-.995.368-1.395,1.384-1.395h.865v5.978a.238.238,0,0,0,.259.259H141.1c2.681,0,4.011-.93,4.1-4.14" transform="translate(9.994 0.526)" fill="#fff"/>
    <path id="Path_4837" data-name="Path 4837" d="M146.579,15.773h1.935a.249.249,0,0,0,.27-.281c.13-8.94.162-10.81.162-12.637,0-.054-.1-.065-.27-.054a11.21,11.21,0,0,0-1.211.141A1.362,1.362,0,0,0,146.2,4.389c0,2.508.065,6.692.119,11.124a.238.238,0,0,0,.259.259" transform="translate(11.845 0.227)" fill="#fff"/>
    <path id="Path_4838" data-name="Path 4838" d="M169.006,8.122a4.627,4.627,0,0,0-4.681,3.243v.108c-.313.94-.411,1.243-1.611,1.243h-1.978V6.75a.238.238,0,0,0-.259-.259h-4.713c-2.605,0-4.854,1.589-4.854,4.519s2.249,4.465,4.854,4.465h2.378c0,1.005-.335,1.416-1.438,1.416h-4.411c-.184,0-.259.119-.227.3l.465,2.216a.259.259,0,0,0,.281.227h3.762c2.681,0,4.162-.93,4.162-4.14h2.011a3.632,3.632,0,0,0,2.032-.4,4.821,4.821,0,0,0,4.248,2.238,4.613,4.613,0,1,0-.022-9.21m-10.972,4.605h-2.292c-1.567,0-2.162-.778-2.162-1.719s.584-1.773,2.162-1.773h2.292Zm10.972,1.881c-1.567,0-2.162-.876-2.162-1.87s.584-1.881,2.162-1.881,2.162.886,2.162,1.881-.584,1.87-2.162,1.87" transform="translate(12.227 0.526)" fill="#fff"/>
    <path id="Path_4839" data-name="Path 4839" d="M183.8,5.075a1.168,1.168,0,1,0-1.168-1.168A1.168,1.168,0,0,0,183.8,5.075" transform="translate(14.797 0.222)" fill="#fff"/>
    <path id="Path_4840" data-name="Path 4840" d="M181.2,5.075a1.168,1.168,0,1,0-1.167-1.168A1.168,1.168,0,0,0,181.2,5.075" transform="translate(14.587 0.222)" fill="#fff"/>
    <path id="Path_4841" data-name="Path 4841" d="M182.205,15.572H200.14a.249.249,0,0,0,.27-.259V13.1a.249.249,0,0,0-.27-.27h-6.378a4.822,4.822,0,0,1-.227-1.276c0-1.892.876-2.465,2.346-2.465.995,0,1.946.216,2.5.216.984,0,1.351-.692,1.492-2a.281.281,0,0,0-.195-.324,10.983,10.983,0,0,0-3.794-.649c-3.654,0-5.048,2.086-5.048,4.735a8.355,8.355,0,0,0,.216,1.762h-3.557V8.416l.065-2.876c0-.173-.1-.292-.281-.27a9.34,9.34,0,0,0-1.232.13A1.319,1.319,0,0,0,184.8,6.589h-2.659a4.432,4.432,0,0,0-4.54,4.486,4.324,4.324,0,0,0,4.605,4.5m-.065-6.27h2.638v3.492h-2.162c-1.73,0-2.313-.627-2.313-1.751a1.676,1.676,0,0,1,1.838-1.74" transform="translate(14.389 0.427)" fill="#fff"/>
    <path id="Path_4842" data-name="Path 4842" d="M226.85,17.52a1.449,1.449,0,1,0,1.449-1.33,1.33,1.33,0,0,0-1.449,1.33" transform="translate(18.38 1.311)" fill="#fff"/>
    <path id="Path_4843" data-name="Path 4843" d="M222.727,15.094a3.632,3.632,0,0,0,2.032.4H237.1a3.675,3.675,0,0,0,2.032-.4,4.821,4.821,0,0,0,4.248,2.238,4.6,4.6,0,1,0,0-9.189,4.616,4.616,0,0,0-4.681,3.243v.108c-.313.94-.422,1.243-1.622,1.243h-1.87c0-.551.076-1.081.076-1.513,0-3.243-1.924-4.984-5.708-4.984a10.94,10.94,0,0,0-3.794.649.292.292,0,0,0-.205.324c.151,1.308.519,2,1.5,2,.551,0,1.5-.216,2.5-.216,1.632,0,3.016.573,3.016,2.378a8.185,8.185,0,0,1-.151,1.362h-7.567c-1.168,0-1.3-.281-1.578-1.168a4.951,4.951,0,0,0-9.4-.184v.108c-.324.94-.422,1.243-1.622,1.243h-1.957V6.77a.249.249,0,0,0-.27-.259h-4.713c-2.594,0-4.843,1.589-4.843,4.519s2.249,4.465,4.843,4.465h2.378c0,1.005-.324,1.416-1.427,1.416h-4.411c-.184,0-.27.119-.238.3l.465,2.216a.259.259,0,0,0,.281.227h3.773c2.681,0,4.162-.93,4.162-4.14h2.011a3.675,3.675,0,0,0,2.032-.4,4.811,4.811,0,0,0,4.248,2.238,4.757,4.757,0,0,0,4.227-2.238m20.658-4.259c1.568,0,2.162.886,2.162,1.881s-.573,1.87-2.162,1.87-2.162-.876-2.162-1.87.584-1.881,2.162-1.881m-35.966,1.892h-2.3c-1.567,0-2.162-.778-2.162-1.719s.584-1.773,2.162-1.773h2.3ZM218.5,14.629c-1.567,0-2.162-.876-2.162-1.87s.584-1.881,2.162-1.881,2.162.886,2.162,1.881-.584,1.87-2.162,1.87" transform="translate(16.244 0.506)" fill="#fff"/>
  </g>
</svg>
