<svg id="icon_-_pdf" data-name="icon - pdf" xmlns="http://www.w3.org/2000/svg" width="30.971" height="34.885" viewBox="0 0 30.971 34.885">
  <path id="Path_3609" data-name="Path 3609" d="M98.2,0A2.2,2.2,0,0,0,96,2.18V32.705a2.2,2.2,0,0,0,2.2,2.18H120.25a2.2,2.2,0,0,0,2.2-2.18V8.721L113.636,0Z" transform="translate(-91.483)" fill="#dbe3f2"/>
  <path id="Path_3610" data-name="Path 3610" d="M354.212,8.721h6.637L352,0V6.541A2.2,2.2,0,0,0,354.212,8.721Z" transform="translate(-329.878)" fill="#8f9ab3"/>
  <path id="Path_3611" data-name="Path 3611" d="M390.637,134.541,384,128h6.637Z" transform="translate(-359.665 -119.279)" fill="#c5d2e7"/>
  <path id="Path_3616" data-name="Path 3616" d="M117.016,417.09H96v1.09h21.016a1.1,1.1,0,0,0,1.106-1.09V416A1.1,1.1,0,0,1,117.016,417.09Z" transform="translate(-91.576 -387.656)" fill="#c5d2e7"/>
  <path id="Path_3612" data-name="Path 3612" d="M58.547,251.992a1.1,1.1,0,0,1-1.106,1.09H33.106A1.1,1.1,0,0,1,32,251.992v-10.9A1.1,1.1,0,0,1,33.106,240H57.441a1.1,1.1,0,0,1,1.106,1.09Z" transform="translate(-32 -222.647)" fill="#2c3854"/>
  <g id="Group_151455" data-name="Group 151455" transform="translate(4.822 21.054)">
    <path id="Path_3613" data-name="Path 3613" d="M101.744,294.922a.6.6,0,0,1,.6-.6h2.043a2.179,2.179,0,1,1,0,4.359h-1.477v1.151a.551.551,0,0,1-.566.6.592.592,0,0,1-.6-.6Zm1.167.5v2.172h1.477a1.086,1.086,0,0,0,0-2.172Z" transform="translate(-101.744 -294.32)" fill="#fff"/>
    <path id="Path_3614" data-name="Path 3614" d="M188.435,301.5a.551.551,0,0,1-.611-.54v-4.952a.6.6,0,0,1,.611-.541h2.025c4.042,0,3.953,6.032.08,6.032Zm.557-4.968v3.905h1.468c2.388,0,2.494-3.905,0-3.905Z" transform="translate(-181.873 -295.393)" fill="#fff"/>
    <path id="Path_3615" data-name="Path 3615" d="M288.293,296.591v1.386h2.255a.679.679,0,0,1,.637.618.612.612,0,0,1-.637.523h-2.255v1.83a.52.52,0,0,1-.53.54.559.559,0,0,1-.627-.54V296a.556.556,0,0,1,.627-.541h3.1a.549.549,0,0,1,.619.541.607.607,0,0,1-.619.593h-2.575Z" transform="translate(-274.319 -295.379)" fill="#fff"/>
  </g>
</svg>
