<svg xmlns="http://www.w3.org/2000/svg" width="38.616" height="44.133" viewBox="0 0 38.616 44.133">
  <g id="Group_131" data-name="Group 131" transform="translate(-1319.43 -667.973)" opacity="0.7">
    <path id="Path_514" data-name="Path 514" d="M137.172,44.127H105.912a.921.921,0,0,1-.92-.92V11.178a.918.918,0,0,1,.234-.612L114.42.3a.92.92,0,0,1,.686-.307h22.066a.921.921,0,0,1,.92.92V22.06a.92.92,0,1,1-1.839,0V1.832H115.518l-8.687,9.7V42.288h29.421V38.61a.92.92,0,1,1,1.839,0v4.6a.922.922,0,0,1-.92.92Z" transform="translate(1214.438 667.979)" fill="#777"/>
    <path id="Path_515" data-name="Path 515" d="M125.856,23.609h-8.275a.92.92,0,1,1,0-1.839h7.355V12.576a.92.92,0,1,1,1.839,0V22.689a.92.92,0,0,1-.92.92Z" transform="translate(1203.687 657.237)" fill="#777"/>
    <path id="Path_516" data-name="Path 516" d="M269.824,296.55H247.758A2.762,2.762,0,0,1,245,293.791V282.758A2.762,2.762,0,0,1,247.758,280h22.066a2.762,2.762,0,0,1,2.758,2.758v11.033A2.762,2.762,0,0,1,269.824,296.55Zm-22.066-14.711a.921.921,0,0,0-.92.92v11.033a.921.921,0,0,0,.92.919h22.066a.922.922,0,0,0,.92-.919V282.758a.922.922,0,0,0-.92-.92Z" transform="translate(1085.463 410.04)" fill="#777"/>
    <path id="Path_517" data-name="Path 517" d="M318.193,344.519l-2.28-3.361h.931a.239.239,0,0,1,.149.037.313.313,0,0,1,.086.1l1.8,2.768a1.264,1.264,0,0,1,.1-.221l1.7-2.526a.582.582,0,0,1,.094-.114.184.184,0,0,1,.121-.038h.892l-2.289,3.317,2.367,3.591h-.925a.252.252,0,0,1-.167-.055.563.563,0,0,1-.1-.121l-1.854-2.9a.993.993,0,0,1-.086.191l-1.8,2.7a.657.657,0,0,1-.1.123.2.2,0,0,1-.156.055h-.868l2.379-3.547Z" transform="translate(1020.231 353.702)" fill="#777"/>
    <path id="Path_518" data-name="Path 518" d="M405.231,347.305h2.988v.785h-3.924v-6.907h.936Z" transform="translate(938.722 353.678)" fill="#777"/>
    <path id="Path_519" data-name="Path 519" d="M464.14,341.346a.369.369,0,0,1-.094.108.186.186,0,0,1-.123.038.35.35,0,0,1-.191-.081c-.072-.055-.164-.116-.272-.184a2.529,2.529,0,0,0-.4-.18,1.759,1.759,0,0,0-.566-.081,1.814,1.814,0,0,0-.553.085,1.183,1.183,0,0,0-.4.23.885.885,0,0,0-.241.344,1.1,1.1,0,0,0-.083.421.767.767,0,0,0,.143.48,1.209,1.209,0,0,0,.375.327,3,3,0,0,0,.529.234c.2.064.4.132.609.2s.412.151.607.237a2.071,2.071,0,0,1,.529.336,1.535,1.535,0,0,1,.377.5,1.621,1.621,0,0,1,.143.723,2.313,2.313,0,0,1-.155.85,1.99,1.99,0,0,1-.45.693,2.118,2.118,0,0,1-.728.461,2.679,2.679,0,0,1-.98.169,3.017,3.017,0,0,1-1.225-.243,2.864,2.864,0,0,1-.943-.658l.27-.441a.34.34,0,0,1,.094-.09.218.218,0,0,1,.121-.037.373.373,0,0,1,.23.108,3.01,3.01,0,0,0,.327.241,2.4,2.4,0,0,0,.473.237,1.916,1.916,0,0,0,.68.1,1.82,1.82,0,0,0,.592-.092,1.2,1.2,0,0,0,.441-.263,1.117,1.117,0,0,0,.276-.4,1.32,1.32,0,0,0,.1-.517.85.85,0,0,0-.143-.513,1.2,1.2,0,0,0-.373-.335,2.62,2.62,0,0,0-.528-.228c-.195-.062-.4-.127-.607-.191a6.306,6.306,0,0,1-.607-.23,1.913,1.913,0,0,1-.528-.342,1.525,1.525,0,0,1-.373-.518,1.8,1.8,0,0,1-.143-.769,1.776,1.776,0,0,1,.143-.708,1.827,1.827,0,0,1,.414-.609,1.966,1.966,0,0,1,.666-.421,2.367,2.367,0,0,1,.914-.158,2.908,2.908,0,0,1,1.056.184,2.44,2.44,0,0,1,.833.531l-.226.443Z" transform="translate(887.369 354.595)" fill="#777"/>
  </g>
</svg>
