<svg xmlns="http://www.w3.org/2000/svg" width="60.121" height="46.439" viewBox="0 0 60.121 46.439">
  <g id="Group_157700" data-name="Group 157700" transform="translate(-545.373 -278.78)">
    <path id="Path_15255" data-name="Path 15255" d="M101.724,249H98.508a1.508,1.508,0,0,0,0,3.016h3.217a1.508,1.508,0,0,0,0-3.016Z" transform="translate(458.123 52.296)" fill="#2d3955"/>
    <path id="Path_15256" data-name="Path 15256" d="M101.724,313H98.508a1.508,1.508,0,1,0,0,3.016h3.217a1.508,1.508,0,0,0,0-3.016Z" transform="translate(458.123 -5.271)" fill="#2d3955"/>
    <path id="Path_15257" data-name="Path 15257" d="M101.724,377H98.508a1.508,1.508,0,0,0,0,3.016h3.217a1.508,1.508,0,0,0,0-3.016Z" transform="translate(458.123 -62.837)" fill="#2d3955"/>
    <path id="Path_15258" data-name="Path 15258" d="M229.724,249h-3.217a1.508,1.508,0,0,0,0,3.016h3.217a1.508,1.508,0,0,0,0-3.016Z" transform="translate(342.989 52.296)" fill="#2d3955"/>
    <path id="Path_15259" data-name="Path 15259" d="M229.724,313h-3.217a1.508,1.508,0,1,0,0,3.016h3.217a1.508,1.508,0,1,0,0-3.016Z" transform="translate(342.989 -5.271)" fill="#2d3955"/>
    <path id="Path_15260" data-name="Path 15260" d="M229.724,377h-3.217a1.508,1.508,0,0,0,0,3.016h3.217a1.508,1.508,0,0,0,0-3.016Z" transform="translate(342.989 -62.837)" fill="#2d3955"/>
    <path id="Path_15261" data-name="Path 15261" d="M357.724,249h-3.216a1.508,1.508,0,1,0,0,3.016h3.216a1.508,1.508,0,1,0,0-3.016Z" transform="translate(227.855 52.296)" fill="#2d3955"/>
    <path id="Path_15264" data-name="Path 15264" d="M46.942,29.021H43.323V26.508a1.508,1.508,0,1,0-3.016,0v2.513H27.24V26.508a1.508,1.508,0,0,0-3.016,0v2.513H11.157V26.508a1.508,1.508,0,1,0-3.016,0v2.513H4.523A4.528,4.528,0,0,0,0,33.544V66.916a4.528,4.528,0,0,0,4.523,4.523H46.942a4.528,4.528,0,0,0,4.523-4.523V33.544A4.528,4.528,0,0,0,46.942,29.021ZM3.016,33.544a1.509,1.509,0,0,1,1.508-1.508H8.142v2.513a1.508,1.508,0,0,0,3.016,0V32.036H24.225v2.513a1.508,1.508,0,0,0,3.016,0V32.036H40.307v2.513a1.508,1.508,0,0,0,3.016,0V32.036h3.619a1.509,1.509,0,0,1,1.508,1.508v5.931H3.016Zm43.926,34.88H4.523a1.509,1.509,0,0,1-1.508-1.508V42.49H48.449V66.916A1.509,1.509,0,0,1,46.942,68.423Z" transform="translate(545.373 253.78)" fill="#2d3955"/>
    <path id="Path_25776" data-name="Path 25776" d="M6306.924,4361v17.782" transform="translate(-5712 -4060)" fill="none" stroke="#fff" stroke-width="5"/>
    <path id="Path_25777" data-name="Path 25777" d="M6294.832,4370.793l3.449,3.467,10.249-10.249" transform="translate(-5705.158 -4062.207)" fill="none" stroke="#2d3955" stroke-linecap="round" stroke-width="3"/>
  </g>
</svg>
