<svg xmlns="http://www.w3.org/2000/svg" width="13.568" height="17.13" viewBox="0 0 13.568 17.13">
  <path id="Path" d="M14.008,2.808H10.616V1.737a1,1,0,0,0-.9-1.071H5.189a1,1,0,0,0-.9,1.071V2.808H.893a.25.25,0,0,0-.226.268v.535a.25.25,0,0,0,.226.268h.9L2.889,17.315a.489.489,0,0,0,.452.482h8.222a.489.489,0,0,0,.452-.482L13.1,3.879h.9a.25.25,0,0,0,.226-.268V3.076A.25.25,0,0,0,14.008,2.808ZM4.766,15.12a.486.486,0,0,1-.482-.5h0L3.8,6.056a.514.514,0,0,1,.422-.571.487.487,0,0,1,.483.5l.484,8.565a.513.513,0,0,1-.42.57ZM7.9,14.585a.5.5,0,0,1-.452.535A.5.5,0,0,1,7,14.585V6.02a.5.5,0,0,1,.452-.535A.5.5,0,0,1,7.9,6.02ZM9.712,2.808H5.189V1.737H9.712Zm.9,11.814a.487.487,0,0,1-.483.5.514.514,0,0,1-.422-.571L10.2,5.985a.487.487,0,0,1,.483-.5.514.514,0,0,1,.422.571Z" transform="translate(-0.667 -0.667)" fill="#c5d2e7"/>
</svg>
