<svg id="Group_55" data-name="Group 55" xmlns="http://www.w3.org/2000/svg" width="14.25" height="13.5" viewBox="0 0 14.25 13.5">
  <path id="Path_322" data-name="Path 322" d="M47.5,119.994H40.75a.75.75,0,0,0,0,1.5H47.5a.75.75,0,1,0,0-1.5Z" transform="translate(-40 -113.994)" fill="#fff"/>
  <path id="Path_323" data-name="Path 323" d="M40.75,57.494H53.5a.75.75,0,0,0,0-1.5H40.75a.75.75,0,0,0,0,1.5Z" transform="translate(-40 -55.994)" fill="#fff"/>
  <path id="Path_324" data-name="Path 324" d="M46,183.994H40.75a.75.75,0,0,0,0,1.5H46a.75.75,0,0,0,0-1.5Z" transform="translate(-40 -171.994)" fill="#fff"/>
</svg>
