<svg id="dashboard-2" xmlns="http://www.w3.org/2000/svg" width="29.024" height="23.476" viewBox="0 0 29.024 23.476">
  <path id="Path_25952" data-name="Path 25952" d="M37.757,107.671c-3.361-.014-6.726-.009-10.087-.009h-.533c.047.66.11,1.291.136,1.925a1.967,1.967,0,0,0,1.17,1.768c.3.154.586.331.874.505a.839.839,0,0,1,.237.188c.163.217.056.417-.225.423-.435.009-.868,0-1.3,0q-4.194,0-8.387,0c-.163,0-.37.049-.426-.166s.095-.337.267-.434c.373-.214.746-.428,1.117-.645a1.791,1.791,0,0,0,.936-1.474c.053-.68.107-1.362.163-2.088H10.984c-.752,0-1.084-.32-1.084-1.051v-16.6a.9.9,0,0,1,1.022-1q13.416,0,26.832-.009a1.12,1.12,0,0,1,1.17.663v17.346A1.114,1.114,0,0,1,37.757,107.671Zm-.21-16.749H11.28v14.687H37.547ZM13.078,101.314c0-.326,0-.654,0-.982a.326.326,0,0,1,.37-.377c.385,0,.773,0,1.158,0a.334.334,0,0,1,.382.371c0,.671,0,1.345,0,2.016,0,.243-.124.368-.385.366-.376,0-.755,0-1.131,0-.281,0-.388-.111-.391-.386-.006-.334,0-.671,0-1.005Zm5.5-.465c0-.474,0-.945,0-1.419,0-.291.1-.388.409-.391.367,0,.734,0,1.1,0,.284,0,.4.1.4.38.006.974,0,1.945,0,2.919a.333.333,0,0,1-.385.368c-.376,0-.755,0-1.131,0-.281,0-.391-.111-.394-.383C18.575,101.831,18.578,101.34,18.578,100.849Zm-.847-.44c0,.628,0,1.257,0,1.882,0,.317-.095.408-.418.414q-.538,0-1.075,0c-.293,0-.4-.094-.406-.368q-.009-1.923,0-3.85c0-.277.11-.368.4-.371.367,0,.737,0,1.1,0,.284,0,.388.106.388.383C17.733,99.135,17.731,99.772,17.731,100.409ZM34.7,95.4c-1.191.86-2.366,1.711-3.578,2.584V93.555A4.784,4.784,0,0,1,34.7,95.4ZM21.332,99.975V97.653c0-.377.092-.46.486-.463.332,0,.66,0,.992,0,.305,0,.418.1.418.386q0,2.377,0,4.752c0,.271-.113.371-.4.377-.367.006-.737,0-1.1,0-.281,0-.388-.1-.391-.383,0-.782,0-1.565,0-2.347Zm-1.821-2.9c.886-.971,1.762-1.93,2.689-2.944-.409,0-.743-.006-1.078,0-.225.006-.4-.054-.421-.3-.018-.2.148-.311.435-.311.557,0,1.114,0,1.67,0,.326,0,.424.091.424.406,0,.554,0,1.111,0,1.665,0,.214-.086.371-.314.371s-.323-.151-.32-.368c0-.3,0-.594,0-.965-.136.143-.231.237-.32.337-.8.874-1.6,1.751-2.4,2.622-.252.274-.361.283-.663.051-.806-.617-1.608-1.237-2.429-1.871-.077.066-.154.126-.228.194L13.8,98.473a2.107,2.107,0,0,1-.21.183.276.276,0,0,1-.421-.043.607.607,0,0,1,0-.391c.015-.066.113-.117.175-.174q1.546-1.405,3.092-2.807c.275-.248.358-.251.652-.026l2.168,1.671C19.336,96.948,19.419,97.008,19.51,97.076Zm14.213,5.06c-.791-1.182-1.582-2.365-2.384-3.561l3.7-2.673A4.586,4.586,0,0,1,33.723,102.136ZM30.48,93.892V96.5c0,.545-.009,1.094.006,1.639a.775.775,0,0,0,.121.4c.7,1.068,1.419,2.128,2.126,3.19l.258.386a4.638,4.638,0,0,1-4.9-.246,4.331,4.331,0,0,1-1.7-4.918A4.507,4.507,0,0,1,30.48,93.892Z" transform="translate(-9.9 -89)" fill="#2d3955"/>
</svg>
