<svg xmlns="http://www.w3.org/2000/svg" width="22.996" height="23.446" viewBox="0 0 22.996 23.446">
  <path id="pending" d="M12.815,21.585a.889.889,0,1,1,.231,1.763,11.944,11.944,0,0,1-2.328.071A11.5,11.5,0,1,1,14.7.894,11.412,11.412,0,0,1,17.11,1.9l-.227-.594a.964.964,0,1,1,1.8-.686l.958,2.508a.98.98,0,0,1,.062.3.962.962,0,0,1-.67,1.071l-2.567.785a.961.961,0,1,1-.558-1.839l.211-.065a9.727,9.727,0,1,0-5.367,18.259,10.158,10.158,0,0,0,2.061-.053ZM9.742,7.264a.889.889,0,0,1,1.778,0v5.411l3.7,1.628a.888.888,0,0,1-.716,1.625l-4.19-1.842a.89.89,0,0,1-.576-.832V7.264Zm6.17,13.371a.889.889,0,1,0,.8,1.586,11.34,11.34,0,0,0,1.64-1.009A.889.889,0,1,0,17.3,19.784,9.535,9.535,0,0,1,15.912,20.635Zm3.626-3.186a.889.889,0,1,0,1.476.991,11.544,11.544,0,0,0,.938-1.68.889.889,0,1,0-1.62-.732A9.739,9.739,0,0,1,19.538,17.449Zm1.634-4.559a.889.889,0,1,0,1.77.168,11.755,11.755,0,0,0,.027-1.922.889.889,0,1,0-1.774.125A9.925,9.925,0,0,1,21.172,12.89Zm-.737-4.782a.889.889,0,0,0,1.634-.7,11.526,11.526,0,0,0-.9-1.7.889.889,0,0,0-1.495.963A9.705,9.705,0,0,1,20.435,8.109Z" transform="translate(0 0)" fill="#2d3955"/>
</svg>
