<svg xmlns="http://www.w3.org/2000/svg" width="93.458" height="77" viewBox="0 0 93.458 77">
  <g id="noun_cancel_2565937" transform="translate(-1.5 -7.375)" opacity="0.1">
    <path id="Path_485" data-name="Path 485" d="M14.99,27.08a6.927,6.927,0,1,0-6.92-6.935A6.943,6.943,0,0,0,14.99,27.08Zm0-11.053a4.126,4.126,0,1,1-4.118,4.119A4.13,4.13,0,0,1,14.99,16.027Z" transform="translate(2.433 2.145)" stroke="#707070" stroke-width="1"/>
    <path id="Path_486" data-name="Path 486" d="M26.415,19.972h34.9a1.4,1.4,0,1,0,0-2.8h-34.9a1.4,1.4,0,0,0,0,2.8Z" transform="translate(9.226 3.726)" stroke="#707070" stroke-width="1"/>
    <path id="Path_487" data-name="Path 487" d="M14.99,31.814a6.927,6.927,0,1,0,6.935,6.921A6.928,6.928,0,0,0,14.99,31.814Zm0,11.052a4.125,4.125,0,1,1,4.133-4.132A4.129,4.129,0,0,1,14.99,42.867Z" transform="translate(2.433 9.597)" stroke="#707070" stroke-width="1"/>
    <path id="Path_488" data-name="Path 488" d="M62.72,37.161a1.4,1.4,0,0,0-1.4-1.4h-34.9a1.4,1.4,0,0,0,0,2.8h34.9A1.4,1.4,0,0,0,62.72,37.161Z" transform="translate(9.226 11.179)" stroke="#707070" stroke-width="1"/>
    <path id="Path_489" data-name="Path 489" d="M80.45,52.508V38.117a4.171,4.171,0,0,0-1.093-2.8,4.171,4.171,0,0,0,1.093-2.8V12.077a4.207,4.207,0,0,0-4.2-4.2H6.2a4.207,4.207,0,0,0-4.2,4.2V32.514a4.171,4.171,0,0,0,1.094,2.8A4.171,4.171,0,0,0,2,38.119V58.559a4.207,4.207,0,0,0,4.2,4.2H63.944a15.6,15.6,0,0,0-.966,5.372A15.74,15.74,0,1,0,80.45,52.508ZM4.8,12.077a1.4,1.4,0,0,1,1.4-1.4H76.247a1.4,1.4,0,0,1,1.4,1.4V32.514a1.4,1.4,0,0,1-1.4,1.4H6.2a1.4,1.4,0,0,1-1.4-1.4ZM6.2,59.96a1.4,1.4,0,0,1-1.4-1.4V38.119a1.4,1.4,0,0,1,1.4-1.4l.01,0H76.247a1.4,1.4,0,0,1,1.4,1.4V52.462a15.732,15.732,0,0,0-12.35,7.5ZM78.719,81.073A12.932,12.932,0,1,1,91.657,68.134,12.954,12.954,0,0,1,78.719,81.073Z" transform="translate(0 0)" stroke="#707070" stroke-width="1"/>
    <path id="Path_490" data-name="Path 490" d="M66,45.949a1.4,1.4,0,0,0-1.981,0l-5.112,5.112L53.8,45.949a1.4,1.4,0,0,0-1.981,1.981l5.112,5.112-5.112,5.112A1.4,1.4,0,1,0,53.8,60.135l5.112-5.112,5.112,5.112A1.4,1.4,0,1,0,66,58.154l-5.112-5.112L66,47.93A1.4,1.4,0,0,0,66,45.949Z" transform="translate(19.807 15.099)" stroke="#707070" stroke-width="1"/>
  </g>
</svg>
