<svg xmlns="http://www.w3.org/2000/svg" width="13.768" height="20.937" viewBox="0 0 13.768 20.937">
  <path id="Icon_awesome-phone-volume" data-name="Icon awesome-phone-volume" d="M3.49,20.731a14.972,14.972,0,0,1,0-19.217.561.561,0,0,1,.762-.1L6.576,3.072a.757.757,0,0,1,.246.857L5.66,7.242a.613.613,0,0,1-.634.438l-2-.228a12.3,12.3,0,0,0,0,7.341l2-.228A.613.613,0,0,1,5.66,15l1.162,3.313a.757.757,0,0,1-.246.857L4.252,20.83a.561.561,0,0,1-.762-.1ZM8.861,3.9a2.939,2.939,0,0,1,0,2.66.4.4,0,0,1-.671.106l-.214-.234a.547.547,0,0,1-.081-.589,1.475,1.475,0,0,0,0-1.225.546.546,0,0,1,.081-.589L8.19,3.8a.4.4,0,0,1,.671.106ZM12.152.175a8.724,8.724,0,0,1,0,10.118.4.4,0,0,1-.629.038l-.208-.227a.543.543,0,0,1-.033-.67,7.272,7.272,0,0,0,0-8.4.543.543,0,0,1,.033-.67l.208-.227a.4.4,0,0,1,.629.038ZM10.5,2.013a5.833,5.833,0,0,1,0,6.443.4.4,0,0,1-.64.053l-.209-.228a.542.542,0,0,1-.046-.651,4.376,4.376,0,0,0,0-4.79.542.542,0,0,1,.046-.651l.209-.228a.4.4,0,0,1,.64.053Z" transform="translate(0 0)" fill="#2d3955"/>
</svg>
