<svg id="Group_157702" data-name="Group 157702" xmlns="http://www.w3.org/2000/svg" width="18" height="15" viewBox="0 0 18 15">
  <path id="Path_325" data-name="Path 325" d="M144.78,43.963l-3.75-3.749,0,0c-.017-.017-.034-.032-.052-.047l-.026-.019-.033-.024-.031-.019-.032-.019-.032-.015-.035-.016-.031-.011-.039-.014-.03-.008-.041-.01L140.612,40,140.574,40l-.056,0h-.033l-.057,0-.038.005-.035.005-.04.01-.031.008-.037.013-.032.012-.033.015-.033.016-.03.018-.033.02-.031.023-.028.021c-.016.014-.032.028-.047.043l-.007.007-3.75,3.75a.75.75,0,1,0,1.061,1.061l2.47-2.47v7.189a.75.75,0,0,0,1.5,0v-7.19l2.47,2.469a.75.75,0,0,0,1.061-1.061Z" transform="translate(-127 -39.994)" fill="#fff"/>
  <path id="Path_326" data-name="Path 326" d="M40.75,121.494H47.5a.75.75,0,1,0,0-1.5H40.75a.75.75,0,0,0,0,1.5Z" transform="translate(-40 -112.494)" fill="#fff"/>
  <path id="Path_327" data-name="Path 327" d="M40.75,57.494H46a.75.75,0,1,0,0-1.5H40.75a.75.75,0,0,0,0,1.5Z" transform="translate(-40 -54.494)" fill="#fff"/>
  <path id="Path_328" data-name="Path 328" d="M53.5,183.994H40.75a.75.75,0,0,0,0,1.5H53.5a.75.75,0,0,0,0-1.5Z" transform="translate(-40 -170.494)" fill="#fff"/>
</svg>
