<svg id="noun_occupying_2400947" xmlns="http://www.w3.org/2000/svg" width="61.388" height="61.388" viewBox="0 0 61.388 61.388">
  <path id="Path_491" data-name="Path 491" d="M108.276,58.959a.959.959,0,0,0-.959-.959H103v1.918h4.316a.959.959,0,0,0,.959-.959Z" transform="translate(-53.602 -30.183)" fill="#2d3955"/>
  <path id="Path_492" data-name="Path 492" d="M28.776,42H2.878A2.881,2.881,0,0,0,0,44.878V82.286a.959.959,0,1,0,1.918,0V44.878a.96.96,0,0,1,.959-.959h25.9a.96.96,0,0,1,.959.959V82.286a.959.959,0,1,0,1.918,0V44.878A2.881,2.881,0,0,0,28.776,42Z" transform="translate(0 -21.857)" fill="#2d3955"/>
  <path id="Path_493" data-name="Path 493" d="M31.265,58H14.959a.959.959,0,0,0,0,1.918H31.265a.959.959,0,0,0,0-1.918Z" transform="translate(-7.286 -30.183)" fill="#2d3955"/>
  <path id="Path_494" data-name="Path 494" d="M31.265,68H14.959a.959.959,0,1,0,0,1.918H31.265a.959.959,0,1,0,0-1.918Z" transform="translate(-7.286 -35.387)" fill="#2d3955"/>
  <path id="Path_495" data-name="Path 495" d="M31.265,78H14.959a.959.959,0,1,0,0,1.918H31.265a.959.959,0,1,0,0-1.918Z" transform="translate(-7.286 -40.591)" fill="#2d3955"/>
  <path id="Path_496" data-name="Path 496" d="M31.265,88H14.959a.959.959,0,1,0,0,1.918H31.265a.959.959,0,1,0,0-1.918Z" transform="translate(-7.286 -45.795)" fill="#2d3955"/>
  <path id="Path_497" data-name="Path 497" d="M31.265,98H14.959a.959.959,0,0,0,0,1.918H31.265a.959.959,0,0,0,0-1.918Z" transform="translate(-7.286 -51)" fill="#2d3955"/>
  <path id="Path_498" data-name="Path 498" d="M31.265,108H14.959a.959.959,0,1,0,0,1.918H31.265a.959.959,0,1,0,0-1.918Z" transform="translate(-7.286 -56.204)" fill="#2d3955"/>
  <path id="Path_499" data-name="Path 499" d="M31.265,118H14.959a.959.959,0,1,0,0,1.918H31.265a.959.959,0,1,0,0-1.918Z" transform="translate(-7.286 -61.408)" fill="#2d3955"/>
  <path id="Path_500" data-name="Path 500" d="M112.112,42H103v1.918h9.112a.96.96,0,0,1,.959.959V59.024a15.894,15.894,0,0,1,1.918,2.766V44.878A2.881,2.881,0,0,0,112.112,42Z" transform="translate(-53.602 -21.857)" fill="#2d3955"/>
  <path id="Path_503" data-name="Path 503" d="M79,12.959V41.148a15.877,15.877,0,0,1,1.918-1.258V12.959a.959.959,0,0,0-1.918,0Z" transform="translate(-41.112 -6.245)" fill="#2d3955"/>
  <path id="Path_504" data-name="Path 504" d="M47,12.959V24.47h1.918V12.959a.959.959,0,1,0-1.918,0Z" transform="translate(-24.459 -6.245)" fill="#2d3955"/>
  <path id="Path_505" data-name="Path 505" d="M32.918,2.878a.96.96,0,0,1,.959-.959H60.735a.96.96,0,0,1,.959.959v28.9a15.889,15.889,0,0,1,1.918-.12V2.878A2.881,2.881,0,0,0,60.735,0H33.878A2.881,2.881,0,0,0,31,2.878V18.225h1.918Z" transform="translate(-16.133)" fill="#2d3955"/>
  <path id="Path_506" data-name="Path 506" d="M63.959,12a.959.959,0,0,0-.959.959V24.691a4.8,4.8,0,0,1,1.918,1.156V12.959A.959.959,0,0,0,63.959,12Z" transform="translate(-32.785 -6.245)" fill="#2d3955"/>
</svg>
