<svg xmlns="http://www.w3.org/2000/svg" width="28.664" height="25.75" viewBox="0 0 28.664 25.75">
  <path id="atlp-logo-xs" d="M272.7,275.767h1.543a1.631,1.631,0,0,0,1.631-1.631v-1.543H272.7Zm6.347-16.231h3.173v-9.519h-3.173v3.174h-3.174v-3.174a3.173,3.173,0,0,0-3.173,3.173v3.187h6.347Zm15.9-3.172h-3.173v11.075h-3.207V256.364h-3.173v11.075H282.22v-4.65h-3.173v4.65h-3.174v-7.786H272.7v10.939h25.51a3.153,3.153,0,0,0,3.148-2.98h.005v-6.578h-6.419Zm3.246,11.075h-3.246v-3.25h3.246Zm3.17-14.4a3.153,3.153,0,0,0-3.15-3.027H285.4v3.154H298.18v4.713h3.183v-4.84Z" transform="translate(-272.699 -250.017)" fill="#ae95da"/>
</svg>
