<svg id="Group_157703" data-name="Group 157703" xmlns="http://www.w3.org/2000/svg" width="18" height="15" viewBox="0 0 18 15">
  <path id="Path_321" data-name="Path 321" d="M144.78,109.464a.75.75,0,0,0-1.061,0l-2.47,2.469v-7.19a.75.75,0,0,0-1.5,0v7.189l-2.47-2.47a.75.75,0,1,0-1.061,1.061l3.75,3.75.008.007c.015.015.031.029.047.043l.028.021.031.022.034.02.029.017.035.017.032.015.034.012.036.012.034.009.037.009.04.006.033,0c.025,0,.049,0,.074,0s.049,0,.074,0l.033,0,.039-.006.038-.009.034-.009.036-.013.033-.012.033-.015.034-.016.03-.018.033-.02.032-.024.027-.02q.027-.022.052-.047l0,0,3.75-3.749A.75.75,0,0,0,144.78,109.464Z" transform="translate(-127 -99.494)" fill="#fff"/>
  <path id="Path_322" data-name="Path 322" d="M47.5,119.994H40.75a.75.75,0,0,0,0,1.5H47.5a.75.75,0,1,0,0-1.5Z" transform="translate(-40 -113.994)" fill="#fff"/>
  <path id="Path_323" data-name="Path 323" d="M40.75,57.494H53.5a.75.75,0,0,0,0-1.5H40.75a.75.75,0,0,0,0,1.5Z" transform="translate(-40 -55.994)" fill="#fff"/>
  <path id="Path_324" data-name="Path 324" d="M46,183.994H40.75a.75.75,0,0,0,0,1.5H46a.75.75,0,0,0,0-1.5Z" transform="translate(-40 -171.994)" fill="#fff"/>
</svg>
