<svg xmlns="http://www.w3.org/2000/svg" width="23.419" height="23.419" viewBox="0 0 23.419 23.419">
  <path id="icon-cancel-lg" d="M15.585,37.833a1.887,1.887,0,0,0,2.732,0l8.392-8.392L35.166,37.9a1.7,1.7,0,0,0,1.334.488,1.921,1.921,0,0,0,1.334-.553,1.887,1.887,0,0,0,0-2.732l-8.392-8.392L37.9,18.253a1.7,1.7,0,0,0,.488-1.334,1.921,1.921,0,0,0-.553-1.334,1.887,1.887,0,0,0-2.732,0l-8.392,8.392L18.253,15.52a1.7,1.7,0,0,0-1.334-.488,1.921,1.921,0,0,0-1.334.553,1.887,1.887,0,0,0,0,2.732l8.392,8.392L15.52,35.166a1.7,1.7,0,0,0-.488,1.334A1.921,1.921,0,0,0,15.585,37.833ZM26.709,26.709Z" transform="translate(-15 -15)" fill="#707070"/>
</svg>
