<svg xmlns="http://www.w3.org/2000/svg" width="28.102" height="26.309" viewBox="0 0 28.102 26.309">
  <g id="icon-calender" transform="translate(-95.373 -290.781)">
    <path id="Path_15255" data-name="Path 15255" d="M101.724,249H98.508a1.508,1.508,0,1,0,0,3.016h3.217a1.508,1.508,0,1,0,0-3.016Z" transform="translate(3.344 53.859)" fill="#707070"/>
    <path id="Path_15256" data-name="Path 15256" d="M101.724,313H98.508a1.508,1.508,0,0,0,0,3.016h3.217a1.508,1.508,0,1,0,0-3.016Z" transform="translate(3.344 -6.69)" fill="#707070"/>
    <path id="Path_15257" data-name="Path 15257" d="M101.724,377H98.508a1.508,1.508,0,1,0,0,3.016h3.217a1.508,1.508,0,1,0,0-3.016Z" transform="translate(3.344 -67.239)" fill="#707070"/>
    <path id="Path_15258" data-name="Path 15258" d="M229.724,249h-3.217a1.508,1.508,0,1,0,0,3.016h3.217a1.508,1.508,0,1,0,0-3.016Z" transform="translate(-118.096 53.859)" fill="#707070"/>
    <path id="Path_15259" data-name="Path 15259" d="M229.724,313h-3.217a1.508,1.508,0,0,0,0,3.016h3.217a1.508,1.508,0,1,0,0-3.016Z" transform="translate(-118.096 -6.69)" fill="#707070"/>
    <path id="Path_15260" data-name="Path 15260" d="M229.724,377h-3.217a1.508,1.508,0,0,0,0,3.016h3.217a1.508,1.508,0,1,0,0-3.016Z" transform="translate(-118.096 -67.239)" fill="#707070"/>
    <path id="Path_15261" data-name="Path 15261" d="M357.724,249h-3.216a1.508,1.508,0,1,0,0,3.016h3.216a1.508,1.508,0,0,0,0-3.016Z" transform="translate(-239.535 53.859)" fill="#707070"/>
    <path id="Path_15264" data-name="Path 15264" d="M25.632,27.278H23.656V25.854a.824.824,0,1,0-1.647,0v1.424H14.874V25.854a.824.824,0,1,0-1.647,0v1.424H6.092V25.854a.824.824,0,1,0-1.647,0v1.424H2.47A2.52,2.52,0,0,0,0,29.841V48.748A2.52,2.52,0,0,0,2.47,51.31H25.632a2.52,2.52,0,0,0,2.47-2.563V29.841a2.52,2.52,0,0,0-2.47-2.563ZM1.647,29.841a.84.84,0,0,1,.823-.854H4.446V30.41a.824.824,0,1,0,1.647,0V28.986h7.135V30.41a.824.824,0,1,0,1.647,0V28.986H22.01V30.41a.824.824,0,1,0,1.647,0V28.986h1.976a.84.84,0,0,1,.823.854V33.2H1.647ZM25.632,49.6H2.47a.84.84,0,0,1-.823-.854V34.909H26.455V48.748a.84.84,0,0,1-.823.852Z" transform="translate(95.373 265.78)" fill="#707070"/>
    <path id="Path_26145" data-name="Path 26145" d="M357.724,249h-3.216a1.508,1.508,0,1,0,0,3.016h3.216a1.508,1.508,0,0,0,0-3.016Z" transform="translate(-239.535 57.614)" fill="#707070"/>
    <path id="Path_26146" data-name="Path 26146" d="M357.724,249h-3.216a1.508,1.508,0,1,0,0,3.016h3.216a1.508,1.508,0,0,0,0-3.016Z" transform="translate(-239.535 60.833)" fill="#707070"/>
  </g>
</svg>
