<svg xmlns="http://www.w3.org/2000/svg" width="33.761" height="28.302" viewBox="0 0 33.761 28.302">
  <g id="Group_156415" data-name="Group 156415" transform="translate(0 0)">
    <g id="Group_156414" data-name="Group 156414">
      <path id="Path_25958" data-name="Path 25958" d="M443.944,535.037l5.482,3.241v6.809a.811.811,0,0,0,.221.566,11.366,11.366,0,0,0,7.531,3.557c.106,0,.211.005.315.005a11.263,11.263,0,0,0,7.846-3.562.811.811,0,0,0,.221-.567v-6.809l4.553-2.692v4.774a1.112,1.112,0,0,0-.432.9,1.136,1.136,0,0,0,.338.826.557.557,0,0,0-.25.372l-.559,2.781a.635.635,0,0,0,.093.479.465.465,0,0,0,.381.214h1.83a.465.465,0,0,0,.381-.214.636.636,0,0,0,.093-.479l-.559-2.781a.557.557,0,0,0-.25-.372,1.136,1.136,0,0,0,.338-.826,1.111,1.111,0,0,0-.432-.9v-5.354a.755.755,0,0,0,.294-.641.724.724,0,0,0-.386-.637l-13.268-6.276a.54.54,0,0,0-.468,0l-13.268,6.276a.724.724,0,0,0-.386.637A.745.745,0,0,0,443.944,535.037Zm20.318,9.7a9.851,9.851,0,0,1-7.047,2.964,10.03,10.03,0,0,1-6.49-2.964v-5.694l6.487,3.836a.545.545,0,0,0,.564,0l6.487-3.836ZM457.494,528.9l11.777,5.571-11.777,6.964-11.777-6.964Z" transform="translate(-441.048 -527.399)" fill="#2d3955"/>
      <path id="Path_25959" data-name="Path 25959" d="M335.642,1145.41l-.018-.014c-2.768-5.261-9.316-7.249-15.6-6.174l1.609-4.5-4.579,6.716c6.572-1.241,13.775-1.493,18.355,3.79-4.376-3.389-12.458-4.968-18.893-1.245l.051,0c2.715-.542,9.488-1.351,18.742,1.349l.241.061.016.018.081.025-.013-.022Z" transform="translate(-316.513 -1117.127)" fill="#2d3955"/>
      <path id="Path_25960" data-name="Path 25960" d="M1002.488,1291.95c4.58-5.283,11.784-5.032,18.355-3.79-2.247-2.435-5.916-2.5-6.649-2.49-5.019.1-9.7,2.216-11.924,6.45l-.018.014.011,0-.013.022.081-.025.016-.018.241-.061c9.254-2.7,16.027-1.891,18.742-1.349l.051,0C1014.946,1286.982,1006.864,1288.561,1002.488,1291.95Z" transform="translate(-987.62 -1263.851)" fill="#2d3955"/>
    </g>
  </g>
</svg>
