<svg xmlns="http://www.w3.org/2000/svg" width="31.136" height="22.645" viewBox="0 0 31.136 22.645">
  <path id="icon-payments" d="M19.691,21.445A4.228,4.228,0,0,1,15.445,17.2a4.228,4.228,0,0,1,4.246-4.246A4.228,4.228,0,0,1,23.937,17.2a4.228,4.228,0,0,1-4.246,4.246ZM8.369,26.4a2.114,2.114,0,0,1-2.123-2.123V10.123A2.114,2.114,0,0,1,8.369,8H31.013a2.114,2.114,0,0,1,2.123,2.123V24.276A2.114,2.114,0,0,1,31.013,26.4Zm3.538-2.123H27.475a3.5,3.5,0,0,1,3.538-3.538V13.661a3.5,3.5,0,0,1-3.538-3.538H11.907a3.5,3.5,0,0,1-3.538,3.538v7.076a3.5,3.5,0,0,1,3.538,3.538ZM28.89,30.645H4.123A2.114,2.114,0,0,1,2,28.522V12.246H4.123V28.522H28.89ZM8.369,24.276h0V10.123h0V24.276Z" transform="translate(-2 -8)" fill="#707070"/>
</svg>
