<svg xmlns="http://www.w3.org/2000/svg" width="60.426" height="46.439" viewBox="0 0 60.426 46.439">
  <g id="Group_157701" data-name="Group 157701" transform="translate(-998.373 -279.78)">
    <g id="Group_155877" data-name="Group 155877" transform="translate(431 -12)">
      <path id="Path_25778" data-name="Path 25778" d="M101.724,249H98.508a1.508,1.508,0,0,0,0,3.016h3.217a1.508,1.508,0,0,0,0-3.016Z" transform="translate(480.123 65.296)" fill="#2d3955"/>
      <path id="Path_25779" data-name="Path 25779" d="M101.724,313H98.508a1.508,1.508,0,1,0,0,3.016h3.217a1.508,1.508,0,0,0,0-3.016Z" transform="translate(480.123 7.729)" fill="#2d3955"/>
      <path id="Path_25780" data-name="Path 25780" d="M101.724,377H98.508a1.508,1.508,0,0,0,0,3.016h3.217a1.508,1.508,0,0,0,0-3.016Z" transform="translate(480.123 -49.837)" fill="#2d3955"/>
      <path id="Path_25781" data-name="Path 25781" d="M229.724,249h-3.217a1.508,1.508,0,0,0,0,3.016h3.217a1.508,1.508,0,0,0,0-3.016Z" transform="translate(364.989 65.296)" fill="#2d3955"/>
      <path id="Path_25782" data-name="Path 25782" d="M229.724,313h-3.217a1.508,1.508,0,1,0,0,3.016h3.217a1.508,1.508,0,1,0,0-3.016Z" transform="translate(364.989 7.729)" fill="#2d3955"/>
      <path id="Path_25783" data-name="Path 25783" d="M229.724,377h-3.217a1.508,1.508,0,0,0,0,3.016h3.217a1.508,1.508,0,0,0,0-3.016Z" transform="translate(364.989 -49.837)" fill="#2d3955"/>
      <path id="Path_25784" data-name="Path 25784" d="M357.724,249h-3.216a1.508,1.508,0,1,0,0,3.016h3.216a1.508,1.508,0,1,0,0-3.016Z" transform="translate(249.855 65.296)" fill="#2d3955"/>
      <path id="Path_25785" data-name="Path 25785" d="M46.942,29.021H43.323V26.508a1.508,1.508,0,1,0-3.016,0v2.513H27.24V26.508a1.508,1.508,0,0,0-3.016,0v2.513H11.157V26.508a1.508,1.508,0,1,0-3.016,0v2.513H4.523A4.528,4.528,0,0,0,0,33.544V66.916a4.528,4.528,0,0,0,4.523,4.523H46.942a4.528,4.528,0,0,0,4.523-4.523V33.544A4.528,4.528,0,0,0,46.942,29.021ZM3.016,33.544a1.509,1.509,0,0,1,1.508-1.508H8.142v2.513a1.508,1.508,0,0,0,3.016,0V32.036H24.225v2.513a1.508,1.508,0,0,0,3.016,0V32.036H40.307v2.513a1.508,1.508,0,0,0,3.016,0V32.036h3.619a1.509,1.509,0,0,1,1.508,1.508v5.931H3.016Zm43.926,34.88H4.523a1.509,1.509,0,0,1-1.508-1.508V42.49H48.449V66.916A1.509,1.509,0,0,1,46.942,68.423Z" transform="translate(567.373 266.78)" fill="#2d3955"/>
      <path id="Path_25786" data-name="Path 25786" d="M6306.924,4361v17.782" transform="translate(-5690 -4047)" fill="none" stroke="#fff" stroke-width="5"/>
      <path id="Path_25787" data-name="Path 25787" d="M6294.832,4366.6l1.314,1.321,3.905-3.905" transform="translate(-5679.441 -4042.964)" fill="none" stroke="#2d3955" stroke-linecap="round" stroke-width="2"/>
      <path id="Path_25788" data-name="Path 25788" d="M7,0a7.137,7.137,0,0,1,5.551,2.735,6.639,6.639,0,0,1,1.3,2.807A6.553,6.553,0,0,1,14,7,7,7,0,0,1,0,7" transform="matrix(-0.966, 0.259, -0.259, -0.966, 626.574, 327.95)" fill="none" stroke="#2d3955" stroke-width="2"/>
    </g>
  </g>
</svg>
